<svg viewBox="0 0 1200 1788" xmlns="http://www.w3.org/2000/svg"><style>
.h1{font-family:'Baloo 2',sans-serif;font-weight:800;font-size:34px;fill:#1E2A18}
.h2{font-family:'Hanken Grotesk',sans-serif;font-size:16px;fill:#6F7E62}
.eyebrow{font-family:'JetBrains Mono',monospace;font-size:13px;font-weight:600;fill:#6F7E62;letter-spacing:2px}
.cap{font-family:'Hanken Grotesk',sans-serif;font-size:14px;fill:#3C4A34}
</style><rect width="1200" height="1788" fill="#EEF4E6"/><text x="40" y="52" class="h1">Identity asset library</text><text x="40" y="80" class="h2">Original flat artwork in the muted register (charter rule 3). Icons compose: a plant silhouette sits in a pot</text><text x="40" y="100" class="h2">shape, tinted from the materials palette. State colour lives only on the card frame — never here.</text><text x="40" y="132" class="eyebrow">MUTED MATERIALS — THE SATURATION CEILING FOR IDENTITY</text><rect x="40.0" y="144" width="117.3" height="46" rx="10" fill="#B98F6F"/><text x="98.7" y="210" class="cap" text-anchor="middle">terracotta</text><rect x="165.3" y="144" width="117.3" height="46" rx="10" fill="#C08A6A"/><text x="224.0" y="210" class="cap" text-anchor="middle">clay</text><rect x="290.7" y="144" width="117.3" height="46" rx="10" fill="#CB763E"/><text x="349.3" y="210" class="cap" text-anchor="middle">persimmon</text><rect x="416.0" y="144" width="117.3" height="46" rx="10" fill="#9AA6A0"/><text x="474.7" y="210" class="cap" text-anchor="middle">stoneware</text><rect x="541.3" y="144" width="117.3" height="46" rx="10" fill="#A59E93"/><text x="600.0" y="210" class="cap" text-anchor="middle">stone</text><rect x="666.7" y="144" width="117.3" height="46" rx="10" fill="#8FA3B0"/><text x="725.3" y="210" class="cap" text-anchor="middle">ceramic</text><rect x="792.0" y="144" width="117.3" height="46" rx="10" fill="#E3DAC2"/><text x="850.7" y="210" class="cap" text-anchor="middle">cream</text><rect x="917.3" y="144" width="117.3" height="46" rx="10" fill="#A9B7A0"/><text x="976.0" y="210" class="cap" text-anchor="middle">sage-glaze</text><rect x="1042.7" y="144" width="117.3" height="46" rx="10" fill="#52585A"/><text x="1101.3" y="210" class="cap" text-anchor="middle">charcoal</text><text x="40" y="262" class="eyebrow">POT SHAPES — FORM ONLY (6)</text><rect x="48" y="278" width="170" height="118" rx="14" fill="#F7FAF2" stroke="#E3E9D8"/><path d="M103.0 330 L163.0 330 L155.0 376 Q133.0 380 111.0 376 Z" fill="#B98F6F"/><rect x="99.0" y="324" width="68" height="9" rx="4" fill="#A87E5F"/><text x="133.0" y="418" class="cap" text-anchor="middle">tapered classic</text><rect x="234" y="278" width="170" height="118" rx="14" fill="#F7FAF2" stroke="#E3E9D8"/><rect x="295.0" y="328" width="48" height="48" rx="4" fill="#B98F6F"/><rect x="291.0" y="322" width="56" height="9" rx="4" fill="#A87E5F"/><text x="319.0" y="418" class="cap" text-anchor="middle">straight-wall</text><rect x="420" y="278" width="170" height="118" rx="14" fill="#F7FAF2" stroke="#E3E9D8"/><path d="M473.0 346 Q473.0 376 505.0 376 Q537.0 376 537.0 346 Q537.0 330 505.0 330 Q473.0 330 473.0 346 Z" fill="#B98F6F"/><rect x="475.0" y="326" width="60" height="9" rx="4" fill="#A87E5F"/><text x="505.0" y="418" class="cap" text-anchor="middle">kettle / round</text><rect x="606" y="278" width="170" height="118" rx="14" fill="#F7FAF2" stroke="#E3E9D8"/><path d="M657.0 350 Q661.0 376 691.0 376 Q721.0 376 725.0 350 Z" fill="#B98F6F"/><rect x="655.0" y="346 " width="72" height="8" rx="4" fill="#A87E5F"/><text x="691.0" y="418" class="cap" text-anchor="middle">low bowl</text><rect x="792" y="278" width="170" height="118" rx="14" fill="#F7FAF2" stroke="#E3E9D8"/><path d="M849.0 332 L905.0 332 L899.0 364 L855.0 364 Z" fill="#B98F6F"/><rect x="845.0" y="326" width="64" height="9" rx="4" fill="#A87E5F"/><path d="M863.0 364 L857.0 376 L871.0 376 Z" fill="#A87E5F"/><path d="M891.0 364 L897.0 376 L883.0 376 Z" fill="#A87E5F"/><text x="877.0" y="418" class="cap" text-anchor="middle">footed</text><rect x="978" y="278" width="170" height="118" rx="14" fill="#F7FAF2" stroke="#E3E9D8"/><rect x="1037.0" y="328" width="52" height="48" rx="6" fill="#B98F6F"/><ellipse cx="1063.0" cy="328" rx="26" ry="7" fill="#A87E5F"/><text x="1063.0" y="418" class="cap" text-anchor="middle">cylinder</text><text x="40" y="470" class="eyebrow">PLANT SILHOUETTES — 24 · THE COMPLETE SET (#1121)</text><rect x="40" y="486" width="264" height="196" rx="16" fill="#F7FAF2" stroke="#E3E9D8"/><line x1="172.0" y1="608" x2="156.0" y2="578" stroke="#6B8659" stroke-width="3"/><ellipse cx="156.0" cy="578" rx="13" ry="16" fill="#7E9B6B" transform="rotate(-18 156.0 578)"/><line x1="172.0" y1="608" x2="188.0" y2="578" stroke="#6B8659" stroke-width="3"/><ellipse cx="188.0" cy="578" rx="13" ry="16" fill="#7E9B6B" transform="rotate(18 188.0 578)"/><line x1="172.0" y1="608" x2="172.0" y2="568" stroke="#6B8659" stroke-width="3"/><ellipse cx="172.0" cy="568" rx="13" ry="16" fill="#7E9B6B" transform="rotate(0 172.0 568)"/><line x1="172.0" y1="608" x2="164.0" y2="586" stroke="#6B8659" stroke-width="3"/><ellipse cx="164.0" cy="586" rx="13" ry="16" fill="#7E9B6B" transform="rotate(-30 164.0 586)"/><line x1="172.0" y1="608" x2="181.0" y2="584" stroke="#6B8659" stroke-width="3"/><ellipse cx="181.0" cy="584" rx="13" ry="16" fill="#6B8659" transform="rotate(28 181.0 584)"/><path d="M162.0 608 Q138.0 624 146.0 652" fill="none" stroke="#6B8659" stroke-width="2.5"/><path d="M182.0 608 Q208.0 626 200.0 654" fill="none" stroke="#6B8659" stroke-width="2.5"/><ellipse cx="140.0" cy="630" rx="9" ry="11" fill="#7E9B6B" transform="rotate(-30 140.0 630)"/><ellipse cx="146.0" cy="652" rx="9" ry="11" fill="#7E9B6B" transform="rotate(-10 146.0 652)"/><ellipse cx="206.0" cy="632" rx="9" ry="11" fill="#7E9B6B" transform="rotate(30 206.0 632)"/><ellipse cx="200.0" cy="654" rx="9" ry="11" fill="#7E9B6B" transform="rotate(10 200.0 654)"/><text x="172.0" y="670" class="cap" text-anchor="middle">Pothos</text><rect x="320" y="486" width="264" height="196" rx="16" fill="#F7FAF2" stroke="#E3E9D8"/><path d="M424.0 636 Q423.0 590 430.0 562 Q437.0 590 436.0 636 Z" fill="#7E9B6B" transform="rotate(-14 430.0 636)"/><path d="M430.0 636 Q430.0 596 430.0 566" stroke="#93A87E" stroke-width="1.5" fill="none" transform="rotate(-14 430.0 636)"/><path d="M436.0 636 Q435.0 590 442.0 562 Q449.0 590 448.0 636 Z" fill="#7E9B6B" transform="rotate(-6 442.0 636)"/><path d="M442.0 636 Q442.0 596 442.0 566" stroke="#93A87E" stroke-width="1.5" fill="none" transform="rotate(-6 442.0 636)"/><path d="M448.0 636 Q447.0 590 454.0 562 Q461.0 590 460.0 636 Z" fill="#7E9B6B" transform="rotate(2 454.0 636)"/><path d="M454.0 636 Q454.0 596 454.0 566" stroke="#93A87E" stroke-width="1.5" fill="none" transform="rotate(2 454.0 636)"/><path d="M460.0 636 Q459.0 590 466.0 562 Q473.0 590 472.0 636 Z" fill="#7E9B6B" transform="rotate(9 466.0 636)"/><path d="M466.0 636 Q466.0 596 466.0 566" stroke="#93A87E" stroke-width="1.5" fill="none" transform="rotate(9 466.0 636)"/><path d="M470.0 636 Q469.0 590 476.0 562 Q483.0 590 482.0 636 Z" fill="#7E9B6B" transform="rotate(15 476.0 636)"/><path d="M476.0 636 Q476.0 596 476.0 566" stroke="#93A87E" stroke-width="1.5" fill="none" transform="rotate(15 476.0 636)"/><text x="452.0" y="670" class="cap" text-anchor="middle">Snake plant</text><rect x="600" y="486" width="264" height="196" rx="16" fill="#F7FAF2" stroke="#E3E9D8"/><path d="M732.0 636 Q721 596 704.0 578" stroke="#6B8659" stroke-width="2.5" fill="none"/><ellipse cx="719.4" cy="609.9" rx="7" ry="10" fill="#7E9B6B" transform="rotate(-40 719.4 609.9)"/><ellipse cx="713.8" cy="598.3" rx="7" ry="10" fill="#7E9B6B" transform="rotate(-40 713.8 598.3)"/><ellipse cx="708.2" cy="586.7" rx="7" ry="10" fill="#7E9B6B" transform="rotate(-40 708.2 586.7)"/><ellipse cx="704.0" cy="578.0" rx="7" ry="10" fill="#7E9B6B" transform="rotate(-40 704.0 578.0)"/><path d="M732.0 636 Q716 596 692.0 606" stroke="#6B8659" stroke-width="2.5" fill="none"/><ellipse cx="714.0" cy="622.5" rx="7" ry="10" fill="#7E9B6B" transform="rotate(-40 714.0 622.5)"/><ellipse cx="706.0" cy="616.5" rx="7" ry="10" fill="#7E9B6B" transform="rotate(-40 706.0 616.5)"/><ellipse cx="698.0" cy="610.5" rx="7" ry="10" fill="#7E9B6B" transform="rotate(-40 698.0 610.5)"/><ellipse cx="692.0" cy="606.0" rx="7" ry="10" fill="#7E9B6B" transform="rotate(-40 692.0 606.0)"/><path d="M732.0 636 Q726 596 718.0 570" stroke="#6B8659" stroke-width="2.5" fill="none"/><ellipse cx="725.7" cy="606.3" rx="7" ry="10" fill="#7E9B6B" transform="rotate(-40 725.7 606.3)"/><ellipse cx="722.9" cy="593.1" rx="7" ry="10" fill="#7E9B6B" transform="rotate(-40 722.9 593.1)"/><ellipse cx="720.1" cy="579.9" rx="7" ry="10" fill="#7E9B6B" transform="rotate(-40 720.1 579.9)"/><ellipse cx="718.0" cy="570.0" rx="7" ry="10" fill="#7E9B6B" transform="rotate(-40 718.0 570.0)"/><path d="M732.0 636 Q743 596 760.0 578" stroke="#6B8659" stroke-width="2.5" fill="none"/><ellipse cx="744.6" cy="609.9" rx="7" ry="10" fill="#7E9B6B" transform="rotate(40 744.6 609.9)"/><ellipse cx="750.2" cy="598.3" rx="7" ry="10" fill="#7E9B6B" transform="rotate(40 750.2 598.3)"/><ellipse cx="755.8" cy="586.7" rx="7" ry="10" fill="#7E9B6B" transform="rotate(40 755.8 586.7)"/><ellipse cx="760.0" cy="578.0" rx="7" ry="10" fill="#7E9B6B" transform="rotate(40 760.0 578.0)"/><path d="M732.0 636 Q748 596 772.0 606" stroke="#6B8659" stroke-width="2.5" fill="none"/><ellipse cx="750.0" cy="622.5" rx="7" ry="10" fill="#7E9B6B" transform="rotate(40 750.0 622.5)"/><ellipse cx="758.0" cy="616.5" rx="7" ry="10" fill="#7E9B6B" transform="rotate(40 758.0 616.5)"/><ellipse cx="766.0" cy="610.5" rx="7" ry="10" fill="#7E9B6B" transform="rotate(40 766.0 610.5)"/><ellipse cx="772.0" cy="606.0" rx="7" ry="10" fill="#7E9B6B" transform="rotate(40 772.0 606.0)"/><path d="M732.0 636 Q738 596 746.0 570" stroke="#6B8659" stroke-width="2.5" fill="none"/><ellipse cx="738.3" cy="606.3" rx="7" ry="10" fill="#7E9B6B" transform="rotate(40 738.3 606.3)"/><ellipse cx="741.1" cy="593.1" rx="7" ry="10" fill="#7E9B6B" transform="rotate(40 741.1 593.1)"/><ellipse cx="743.9" cy="579.9" rx="7" ry="10" fill="#7E9B6B" transform="rotate(40 743.9 579.9)"/><ellipse cx="746.0" cy="570.0" rx="7" ry="10" fill="#7E9B6B" transform="rotate(40 746.0 570.0)"/><ellipse cx="732.0" cy="572" rx="8" ry="12" fill="#7E9B6B" transform="rotate(0 732.0 572)"/><text x="732.0" y="670" class="cap" text-anchor="middle">ZZ plant</text><rect x="880" y="486" width="264" height="196" rx="16" fill="#F7FAF2" stroke="#E3E9D8"/><line x1="1012.0" y1="636" x2="996.0" y2="602" stroke="#6B8659" stroke-width="3"/><line x1="1012.0" y1="636" x2="1026.0" y2="596" stroke="#6B8659" stroke-width="3"/><line x1="1012.0" y1="636" x2="1012.0" y2="616" stroke="#6B8659" stroke-width="3"/><g transform="translate(994.0 596) rotate(-18) scale(1.05)"><path d="M0 8 C-30 4 -34 -30 -6 -44 C22 -34 30 -6 0 8 Z" fill="#6B8659"/><path d="M-2 4 L-16 -6" stroke="#F7FAF2" stroke-width="3"/><path d="M-4 -8 L-20 -16" stroke="#F7FAF2" stroke-width="3"/><path d="M0 -20 L-14 -28" stroke="#F7FAF2" stroke-width="3"/><circle cx="6" cy="-18" r="2.6" fill="#F7FAF2"/></g><g transform="translate(1030.0 590) rotate(18) scale(1.15)"><path d="M0 8 C-30 4 -34 -30 -6 -44 C22 -34 30 -6 0 8 Z" fill="#7E9B6B"/><path d="M-2 4 L-16 -6" stroke="#F7FAF2" stroke-width="3"/><path d="M-4 -8 L-20 -16" stroke="#F7FAF2" stroke-width="3"/><path d="M0 -20 L-14 -28" stroke="#F7FAF2" stroke-width="3"/><circle cx="6" cy="-18" r="2.6" fill="#F7FAF2"/></g><g transform="translate(1012.0 612) rotate(2) scale(0.8)"><path d="M0 8 C-30 4 -34 -30 -6 -44 C22 -34 30 -6 0 8 Z" fill="#7E9B6B"/><path d="M-2 4 L-16 -6" stroke="#F7FAF2" stroke-width="3"/><path d="M-4 -8 L-20 -16" stroke="#F7FAF2" stroke-width="3"/><path d="M0 -20 L-14 -28" stroke="#F7FAF2" stroke-width="3"/><circle cx="6" cy="-18" r="2.6" fill="#F7FAF2"/></g><text x="1012.0" y="670" class="cap" text-anchor="middle">Monstera</text><rect x="40" y="698" width="264" height="196" rx="16" fill="#F7FAF2" stroke="#E3E9D8"/><rect x="168.0" y="808" width="8" height="40" rx="3" fill="#7C6A4E"/><rect x="163.0" y="790" width="9" height="20" rx="3" fill="#7C6A4E" transform="rotate(-14 166.0 800)"/><path d="M163.0 792 Q157 766 142 761 L146 764 Q160 770 169.0 792 Z" fill="#6B8659"/><path d="M163.0 792 Q160 766 151 749 L155 752 Q163 770 169.0 792 Z" fill="#7E9B6B"/><path d="M163.0 792 Q164 766 161 743 L165 746 Q167 770 169.0 792 Z" fill="#6B8659"/><path d="M163.0 792 Q168 766 172 743 L176 746 Q171 770 169.0 792 Z" fill="#7E9B6B"/><path d="M163.0 792 Q173 766 183 751 L187 754 Q176 770 169.0 792 Z" fill="#6B8659"/><path d="M163.0 792 Q176 766 190 763 L194 766 Q179 770 169.0 792 Z" fill="#7E9B6B"/><text x="172.0" y="882" class="cap" text-anchor="middle">Dracaena</text><rect x="320" y="698" width="264" height="196" rx="16" fill="#F7FAF2" stroke="#E3E9D8"/><line x1="452.0" y1="848" x2="434.0" y2="818" stroke="#6B8659" stroke-width="3"/><path d="M434.0 828 C418.0 812 422.0 796 434.0 806 C446.0 796 450.0 812 434.0 828 Z" fill="#6B8659" transform="rotate(-24 434.0 818)"/><line x1="452.0" y1="848" x2="468.0" y2="814" stroke="#6B8659" stroke-width="3"/><path d="M468.0 824 C452.0 808 456.0 792 468.0 802 C480.0 792 484.0 808 468.0 824 Z" fill="#7E9B6B" transform="rotate(22 468.0 814)"/><line x1="452.0" y1="848" x2="450.0" y2="804" stroke="#6B8659" stroke-width="3"/><path d="M450.0 814 C434.0 798 438.0 782 450.0 792 C462.0 782 466.0 798 450.0 814 Z" fill="#7E9B6B" transform="rotate(-4 450.0 804)"/><line x1="452.0" y1="848" x2="474.0" y2="832" stroke="#6B8659" stroke-width="3"/><path d="M474.0 841 C463.0 829 466.0 816 474.0 823 C482.0 816 485.0 829 474.0 841 Z" fill="#C56B5C"/><path d="M475.0 825 Q479.0 816 477.0 810" stroke="#E7D9A8" stroke-width="3" fill="none"/><text x="452.0" y="882" class="cap" text-anchor="middle">Anthurium</text><rect x="600" y="698" width="264" height="196" rx="16" fill="#F7FAF2" stroke="#E3E9D8"/><path d="M727.0 846 Q719 818 701 820 L706 824 Q724 822 737.0 846 Z" fill="#7E9B6B"/><path d="M727.0 846 Q723 818 709 806 L714 810 Q728 822 737.0 846 Z" fill="#7E9B6B"/><path d="M727.0 846 Q727 818 720 797 L725 801 Q732 822 737.0 846 Z" fill="#7E9B6B"/><path d="M727.0 846 Q732 818 732 794 L737 798 Q737 822 737.0 846 Z" fill="#7E9B6B"/><path d="M727.0 846 Q737 818 744 797 L749 801 Q742 822 737.0 846 Z" fill="#7E9B6B"/><path d="M727.0 846 Q741 818 755 806 L760 810 Q746 822 737.0 846 Z" fill="#7E9B6B"/><path d="M727.0 846 Q745 818 763 820 L768 824 Q750 822 737.0 846 Z" fill="#7E9B6B"/><path d="M726.0 828 L722.0 804 L730.0 804 Z" fill="#CE8A6E"/><path d="M732.0 828 L728.0 804 L736.0 804 Z" fill="#CE8A6E"/><path d="M738.0 828 L734.0 804 L742.0 804 Z" fill="#CE8A6E"/><text x="732.0" y="882" class="cap" text-anchor="middle">Bromeliad</text><rect x="880" y="698" width="264" height="196" rx="16" fill="#F7FAF2" stroke="#E3E9D8"/><path d="M1007 853 Q992 825 972 806 Q994 829 1017 843 Z" fill="#5E7E52"/><path d="M1006 851 Q999 820 987 796 Q1001 824 1018 845 Z" fill="#5E7E52"/><path d="M1005 849 Q1007 817 1003 791 Q1009 821 1019 847 Z" fill="#6B8659"/><path d="M1005 847 Q1017 817 1021 791 Q1019 821 1019 849 Z" fill="#6B8659"/><path d="M1006 845 Q1025 820 1037 796 Q1027 824 1018 851 Z" fill="#5E7E52"/><path d="M1007 843 Q1032 825 1052 806 Q1034 829 1017 853 Z" fill="#5E7E52"/><line x1="1012.0" y1="848" x2="1032.0" y2="804" stroke="#6B8659" stroke-width="3"/><path d="M1032.0 816 C1019.0 802 1023.0 784 1034.0 793 C1044.0 785 1045.0 802 1032.0 816 Z" fill="#F1EDE1"/><path d="M1032.0 798 Q1035.0 788 1033.0 782" stroke="#E7D9A8" stroke-width="3" fill="none"/><text x="1012.0" y="882" class="cap" text-anchor="middle">Peace lily</text><rect x="40" y="910" width="264" height="196" rx="16" fill="#F7FAF2" stroke="#E3E9D8"/><path d="M168.0 1026 Q134 1018 129 1044" stroke="#7E9B6B" stroke-width="4" fill="none" stroke-linecap="round"/><path d="M168.0 1026 Q142 1011 138 1037" stroke="#7E9B6B" stroke-width="4" fill="none" stroke-linecap="round"/><path d="M168.0 1026 Q154 1006 152 1032" stroke="#7E9B6B" stroke-width="4" fill="none" stroke-linecap="round"/><path d="M168.0 1026 Q190 1006 192 1032" stroke="#7E9B6B" stroke-width="4" fill="none" stroke-linecap="round"/><path d="M168.0 1026 Q202 1011 206 1037" stroke="#7E9B6B" stroke-width="4" fill="none" stroke-linecap="round"/><path d="M168.0 1026 Q210 1018 215 1044" stroke="#7E9B6B" stroke-width="4" fill="none" stroke-linecap="round"/><path d="M167 1027 Q170 1011 167 1000 Q172 1015 177 1025 Z" fill="#6B8659"/><path d="M167 1025 Q174 1011 177 1000 Q176 1015 177 1027 Z" fill="#6B8659"/><path d="M167 1026 Q172 1011 172 1000 Q174 1015 177 1026 Z" fill="#6B8659"/><path d="M172.0 1026 Q202.0 1002 212.0 1026" stroke="#93A87E" stroke-width="1.5" fill="none"/><path d="M209 1028 Q209 1019 206 1016 Q211 1023 215 1024 Z" fill="#7E9B6B"/><path d="M209 1026 Q212 1018 212 1014 Q214 1022 215 1026 Z" fill="#7E9B6B"/><path d="M209 1024 Q215 1019 218 1016 Q217 1023 215 1028 Z" fill="#7E9B6B"/><text x="172.0" y="1094" class="cap" text-anchor="middle">Spider plant</text><rect x="320" y="910" width="264" height="196" rx="16" fill="#F7FAF2" stroke="#E3E9D8"/><path d="M446 1067 Q428 1040 405 1023 Q430 1044 458 1053 Z" fill="#7E9B6B"/><path d="M452.0 1056 L409 1027" stroke="#93A87E" stroke-width="1" fill="none"/><path d="M444 1065 Q436 1033 420 1009 Q438 1037 460 1055 Z" fill="#7E9B6B"/><path d="M452.0 1056 L423 1014" stroke="#93A87E" stroke-width="1" fill="none"/><path d="M443 1062 Q445 1029 437 1002 Q447 1033 461 1058 Z" fill="#7E9B6B"/><path d="M452.0 1056 L439 1008" stroke="#93A87E" stroke-width="1" fill="none"/><path d="M443 1059 Q454 1028 456 1000 Q456 1032 461 1061 Z" fill="#7E9B6B"/><path d="M452.0 1056 L456 1006" stroke="#93A87E" stroke-width="1" fill="none"/><path d="M444 1057 Q463 1030 474 1004 Q465 1034 460 1063 Z" fill="#7E9B6B"/><path d="M452.0 1056 L472 1010" stroke="#93A87E" stroke-width="1" fill="none"/><path d="M445 1054 Q472 1036 492 1015 Q474 1040 459 1066 Z" fill="#7E9B6B"/><path d="M452.0 1056 L488 1020" stroke="#93A87E" stroke-width="1" fill="none"/><path d="M448 1052 Q478 1043 504 1030 Q480 1047 456 1068 Z" fill="#7E9B6B"/><path d="M452.0 1056 L499 1033" stroke="#93A87E" stroke-width="1" fill="none"/><text x="452.0" y="1094" class="cap" text-anchor="middle">Aloe</text><rect x="600" y="910" width="264" height="196" rx="16" fill="#F7FAF2" stroke="#E3E9D8"/><path d="M732.0 1044 L741 1021 L745 1015 L749 1021 Z" fill="#6B8659"/><path d="M732.0 1044 L759 1034 L763 1028 L767 1034 Z" fill="#6B8659"/><path d="M732.0 1044 L760 1053 L764 1047 L768 1053 Z" fill="#6B8659"/><path d="M732.0 1044 L741 1067 L745 1061 L749 1067 Z" fill="#6B8659"/><path d="M732.0 1044 L715 1067 L719 1061 L723 1067 Z" fill="#6B8659"/><path d="M732.0 1044 L697 1054 L701 1048 L705 1054 Z" fill="#6B8659"/><path d="M732.0 1044 L696 1035 L700 1029 L704 1035 Z" fill="#6B8659"/><path d="M732.0 1044 L715 1021 L719 1015 L723 1021 Z" fill="#6B8659"/><path d="M732.0 1044 L728 1028 L732 1023 L736 1028 Z" fill="#7E9B6B"/><path d="M732.0 1044 L745 1034 L749 1029 L753 1034 Z" fill="#7E9B6B"/><path d="M732.0 1044 L749 1048 L753 1043 L757 1048 Z" fill="#7E9B6B"/><path d="M732.0 1044 L738 1058 L742 1053 L746 1058 Z" fill="#7E9B6B"/><path d="M732.0 1044 L718 1058 L722 1053 L726 1058 Z" fill="#7E9B6B"/><path d="M732.0 1044 L707 1048 L711 1043 L715 1048 Z" fill="#7E9B6B"/><path d="M732.0 1044 L711 1034 L715 1029 L719 1034 Z" fill="#7E9B6B"/><path d="M732.0 1044 L732 1037 L736 1033 L740 1037 Z" fill="#93A87E"/><path d="M732.0 1044 L739 1044 L743 1040 L747 1044 Z" fill="#93A87E"/><path d="M732.0 1044 L731 1052 L735 1048 L739 1052 Z" fill="#93A87E"/><path d="M732.0 1044 L719 1048 L723 1044 L727 1048 Z" fill="#93A87E"/><path d="M732.0 1044 L719 1039 L723 1035 L727 1039 Z" fill="#93A87E"/><circle cx="732.0" cy="1044" r="4" fill="#B9C79A"/><text x="732.0" y="1094" class="cap" text-anchor="middle">Echeveria</text><rect x="880" y="910" width="264" height="196" rx="16" fill="#F7FAF2" stroke="#E3E9D8"/><path d="M996.0 1060 L996.0 1008 Q996.0 990 1012.0 990 Q1028.0 990 1028.0 1008 L1028.0 1060 Z" fill="#6E8F72"/><path d="M1028.0 1020 Q1046.0 1020 1046.0 1006 Q1046.0 996 1038.0 996 L1038.0 1014 L1028.0 1014 Z" fill="#6E8F72"/><path d="M1004.0 1054 L1004.0 998" stroke="#5C7C61" stroke-width="1.5" fill="none"/><path d="M1012.0 1054 L1012.0 998" stroke="#5C7C61" stroke-width="1.5" fill="none"/><path d="M1020.0 1054 L1020.0 998" stroke="#5C7C61" stroke-width="1.5" fill="none"/><line x1="1010.0" y1="1002" x2="1006.0" y2="999" stroke="#8FB08F" stroke-width="1"/><line x1="1010.0" y1="1012" x2="1006.0" y2="1009" stroke="#8FB08F" stroke-width="1"/><line x1="1010.0" y1="1022" x2="1006.0" y2="1019" stroke="#8FB08F" stroke-width="1"/><line x1="1010.0" y1="1032" x2="1006.0" y2="1029" stroke="#8FB08F" stroke-width="1"/><line x1="1010.0" y1="1042" x2="1006.0" y2="1039" stroke="#8FB08F" stroke-width="1"/><line x1="1010.0" y1="1052" x2="1006.0" y2="1049" stroke="#8FB08F" stroke-width="1"/><text x="1012.0" y="1094" class="cap" text-anchor="middle">Cactus</text><rect x="40" y="1122" width="264" height="196" rx="16" fill="#F7FAF2" stroke="#E3E9D8"/><rect x="169.0" y="1238" width="6" height="34" rx="2" fill="#7C6A4E"/><g transform="translate(170.0 1242) rotate(-16)"><path d="M0 6 C-16 4 -16 -10 -8 -16 C-14 -26 -6 -34 0 -30 C6 -34 14 -26 8 -16 C16 -10 16 4 0 6 Z" fill="#6B8659"/><path d="M0 4 L0 -28" stroke="#5E7E52" stroke-width="1.3"/></g><g transform="translate(176.0 1228) rotate(12)"><path d="M0 6 C-16 4 -16 -10 -8 -16 C-14 -26 -6 -34 0 -30 C6 -34 14 -26 8 -16 C16 -10 16 4 0 6 Z" fill="#7E9B6B"/><path d="M0 4 L0 -28" stroke="#5E7E52" stroke-width="1.3"/></g><g transform="translate(164.0 1220) rotate(-6)"><path d="M0 6 C-16 4 -16 -10 -8 -16 C-14 -26 -6 -34 0 -30 C6 -34 14 -26 8 -16 C16 -10 16 4 0 6 Z" fill="#7E9B6B"/><path d="M0 4 L0 -28" stroke="#5E7E52" stroke-width="1.3"/></g><text x="172.0" y="1306" class="cap" text-anchor="middle">Fiddle-leaf fig</text><rect x="320" y="1122" width="264" height="196" rx="16" fill="#F7FAF2" stroke="#E3E9D8"/><rect x="449.0" y="1200" width="6" height="72" rx="3" fill="#6E5F46"/><g transform="translate(452.0 1258) rotate(-38)"><ellipse cx="-16" cy="0" rx="16" ry="9" fill="#6B8659"/><line x1="0" y1="0" x2="-28" y2="0" stroke="#4F6A44" stroke-width="1.2"/></g><g transform="translate(452.0 1242) rotate(38)"><ellipse cx="16" cy="0" rx="16" ry="9" fill="#7E9B6B"/><line x1="0" y1="0" x2="28" y2="0" stroke="#4F6A44" stroke-width="1.2"/></g><g transform="translate(452.0 1226) rotate(-38)"><ellipse cx="-16" cy="0" rx="16" ry="9" fill="#6B8659"/><line x1="0" y1="0" x2="-28" y2="0" stroke="#4F6A44" stroke-width="1.2"/></g><g transform="translate(452.0 1212) rotate(38)"><ellipse cx="16" cy="0" rx="16" ry="9" fill="#7E9B6B"/><line x1="0" y1="0" x2="28" y2="0" stroke="#4F6A44" stroke-width="1.2"/></g><ellipse cx="452.0" cy="1200" rx="9" ry="12" fill="#7E9B6B" transform="rotate(0 452.0 1200)"/><text x="452.0" y="1306" class="cap" text-anchor="middle">Rubber plant</text><rect x="600" y="1122" width="264" height="196" rx="16" fill="#F7FAF2" stroke="#E3E9D8"/><path d="M724 1279 Q714 1249 696 1229 Q716 1253 740 1265 Z" fill="#6B8659"/><path d="M732.0 1266 L702 1237" stroke="#A9C08D" stroke-width="3.5" fill="none" opacity="0.85"/><path d="M722 1276 Q722 1244 711 1220 Q724 1248 742 1268 Z" fill="#6B8659"/><path d="M732.0 1266 L715 1229" stroke="#A9C08D" stroke-width="3.5" fill="none" opacity="0.85"/><path d="M721 1273 Q729 1242 726 1216 Q731 1246 743 1271 Z" fill="#6B8659"/><path d="M732.0 1266 L727 1226" stroke="#A9C08D" stroke-width="3.5" fill="none" opacity="0.85"/><path d="M721 1270 Q738 1243 744 1217 Q740 1247 743 1274 Z" fill="#6B8659"/><path d="M732.0 1266 L742 1227" stroke="#A9C08D" stroke-width="3.5" fill="none" opacity="0.85"/><path d="M722 1266 Q746 1246 760 1224 Q748 1250 742 1278 Z" fill="#6B8659"/><path d="M732.0 1266 L755 1232" stroke="#A9C08D" stroke-width="3.5" fill="none" opacity="0.85"/><text x="732.0" y="1306" class="cap" text-anchor="middle">Chinese evergreen</text><rect x="880" y="1122" width="264" height="196" rx="16" fill="#F7FAF2" stroke="#E3E9D8"/><rect x="1009.0" y="1256" width="6" height="16" rx="2" fill="#7C6A4E"/><path d="M1012.0 1256 Q1000 1232 983 1218" stroke="#6B8659" stroke-width="2.5" fill="none"/><ellipse cx="999" cy="1239" rx="3.2" ry="8" fill="#7E9B6B" transform="rotate(-46 999 1239)"/><ellipse cx="993" cy="1232" rx="3.2" ry="8" fill="#7E9B6B" transform="rotate(-46 993 1232)"/><ellipse cx="988" cy="1224" rx="3.2" ry="8" fill="#7E9B6B" transform="rotate(-46 988 1224)"/><ellipse cx="983" cy="1218" rx="3.2" ry="8" fill="#7E9B6B" transform="rotate(-46 983 1218)"/><path d="M1012.0 1256 Q1007 1224 998 1205" stroke="#6B8659" stroke-width="2.5" fill="none"/><ellipse cx="1006" cy="1233" rx="3.2" ry="8" fill="#7E9B6B" transform="rotate(-20 1006 1233)"/><ellipse cx="1003" cy="1223" rx="3.2" ry="8" fill="#7E9B6B" transform="rotate(-20 1003 1223)"/><ellipse cx="1000" cy="1213" rx="3.2" ry="8" fill="#7E9B6B" transform="rotate(-20 1000 1213)"/><ellipse cx="998" cy="1205" rx="3.2" ry="8" fill="#7E9B6B" transform="rotate(-20 998 1205)"/><path d="M1012.0 1256 Q1014 1222 1016 1202" stroke="#6B8659" stroke-width="2.5" fill="none"/><ellipse cx="1014" cy="1232" rx="3.2" ry="8" fill="#7E9B6B" transform="rotate(6 1014 1232)"/><ellipse cx="1015" cy="1221" rx="3.2" ry="8" fill="#7E9B6B" transform="rotate(6 1015 1221)"/><ellipse cx="1016" cy="1210" rx="3.2" ry="8" fill="#7E9B6B" transform="rotate(6 1016 1210)"/><ellipse cx="1016" cy="1202" rx="3.2" ry="8" fill="#7E9B6B" transform="rotate(6 1016 1202)"/><path d="M1012.0 1256 Q1020 1227 1032 1209" stroke="#6B8659" stroke-width="2.5" fill="none"/><ellipse cx="1021" cy="1235" rx="3.2" ry="8" fill="#7E9B6B" transform="rotate(30 1021 1235)"/><ellipse cx="1025" cy="1226" rx="3.2" ry="8" fill="#7E9B6B" transform="rotate(30 1025 1226)"/><ellipse cx="1029" cy="1216" rx="3.2" ry="8" fill="#7E9B6B" transform="rotate(30 1029 1216)"/><ellipse cx="1032" cy="1209" rx="3.2" ry="8" fill="#7E9B6B" transform="rotate(30 1032 1209)"/><path d="M1012.0 1256 Q1025 1235 1044 1223" stroke="#6B8659" stroke-width="2.5" fill="none"/><ellipse cx="1026" cy="1241" rx="3.2" ry="8" fill="#7E9B6B" transform="rotate(52 1026 1241)"/><ellipse cx="1032" cy="1234" rx="3.2" ry="8" fill="#7E9B6B" transform="rotate(52 1032 1234)"/><ellipse cx="1039" cy="1228" rx="3.2" ry="8" fill="#7E9B6B" transform="rotate(52 1039 1228)"/><ellipse cx="1044" cy="1223" rx="3.2" ry="8" fill="#7E9B6B" transform="rotate(52 1044 1223)"/><text x="1012.0" y="1306" class="cap" text-anchor="middle">Palm</text><rect x="40" y="1334" width="264" height="196" rx="16" fill="#F7FAF2" stroke="#E3E9D8"/><path d="M172.0 1484 Q155 1464 139 1472" stroke="#6B8659" stroke-width="2" fill="none"/><ellipse cx="160" cy="1480" rx="2.3" ry="5.5" fill="#7E9B6B" transform="rotate(-60 160 1480)"/><ellipse cx="154" cy="1477" rx="2.3" ry="5.5" fill="#7E9B6B" transform="rotate(-60 154 1477)"/><ellipse cx="147" cy="1475" rx="2.3" ry="5.5" fill="#7E9B6B" transform="rotate(-60 147 1475)"/><ellipse cx="141" cy="1473" rx="2.3" ry="5.5" fill="#7E9B6B" transform="rotate(-60 141 1473)"/><path d="M172.0 1484 Q160 1452 149 1459" stroke="#6B8659" stroke-width="2" fill="none"/><ellipse cx="164" cy="1475" rx="2.3" ry="5.5" fill="#7E9B6B" transform="rotate(-38 164 1475)"/><ellipse cx="159" cy="1470" rx="2.3" ry="5.5" fill="#7E9B6B" transform="rotate(-38 159 1470)"/><ellipse cx="154" cy="1465" rx="2.3" ry="5.5" fill="#7E9B6B" transform="rotate(-38 154 1465)"/><ellipse cx="150" cy="1461" rx="2.3" ry="5.5" fill="#7E9B6B" transform="rotate(-38 150 1461)"/><path d="M172.0 1484 Q166 1446 162 1452" stroke="#6B8659" stroke-width="2" fill="none"/><ellipse cx="168" cy="1473" rx="2.3" ry="5.5" fill="#7E9B6B" transform="rotate(-16 168 1473)"/><ellipse cx="166" cy="1466" rx="2.3" ry="5.5" fill="#7E9B6B" transform="rotate(-16 166 1466)"/><ellipse cx="164" cy="1460" rx="2.3" ry="5.5" fill="#7E9B6B" transform="rotate(-16 164 1460)"/><ellipse cx="162" cy="1453" rx="2.3" ry="5.5" fill="#7E9B6B" transform="rotate(-16 162 1453)"/><path d="M172.0 1484 Q178 1446 182 1452" stroke="#6B8659" stroke-width="2" fill="none"/><ellipse cx="176" cy="1473" rx="2.3" ry="5.5" fill="#7E9B6B" transform="rotate(16 176 1473)"/><ellipse cx="178" cy="1466" rx="2.3" ry="5.5" fill="#7E9B6B" transform="rotate(16 178 1466)"/><ellipse cx="180" cy="1460" rx="2.3" ry="5.5" fill="#7E9B6B" transform="rotate(16 180 1460)"/><ellipse cx="182" cy="1453" rx="2.3" ry="5.5" fill="#7E9B6B" transform="rotate(16 182 1453)"/><path d="M172.0 1484 Q184 1452 195 1459" stroke="#6B8659" stroke-width="2" fill="none"/><ellipse cx="180" cy="1475" rx="2.3" ry="5.5" fill="#7E9B6B" transform="rotate(38 180 1475)"/><ellipse cx="185" cy="1470" rx="2.3" ry="5.5" fill="#7E9B6B" transform="rotate(38 185 1470)"/><ellipse cx="190" cy="1465" rx="2.3" ry="5.5" fill="#7E9B6B" transform="rotate(38 190 1465)"/><ellipse cx="194" cy="1461" rx="2.3" ry="5.5" fill="#7E9B6B" transform="rotate(38 194 1461)"/><path d="M172.0 1484 Q189 1464 205 1472" stroke="#6B8659" stroke-width="2" fill="none"/><ellipse cx="184" cy="1480" rx="2.3" ry="5.5" fill="#7E9B6B" transform="rotate(60 184 1480)"/><ellipse cx="190" cy="1477" rx="2.3" ry="5.5" fill="#7E9B6B" transform="rotate(60 190 1477)"/><ellipse cx="197" cy="1475" rx="2.3" ry="5.5" fill="#7E9B6B" transform="rotate(60 197 1475)"/><ellipse cx="203" cy="1473" rx="2.3" ry="5.5" fill="#7E9B6B" transform="rotate(60 203 1473)"/><text x="172.0" y="1518" class="cap" text-anchor="middle">Boston fern</text><rect x="320" y="1334" width="264" height="196" rx="16" fill="#F7FAF2" stroke="#E3E9D8"/><ellipse cx="438.0" cy="1478" rx="14" ry="7" fill="#5E7E52" transform="rotate(-18 438.0 1478)"/><ellipse cx="464.0" cy="1478" rx="14" ry="7" fill="#6B8659" transform="rotate(16 464.0 1478)"/><path d="M452.0 1478 Q458.0 1440 478.0 1426" stroke="#6B8659" stroke-width="2" fill="none"/><ellipse cx="465" cy="1452" rx="4" ry="3" fill="#C58BA8"/><ellipse cx="462" cy="1457" rx="4" ry="3" fill="#C58BA8"/><ellipse cx="456" cy="1455" rx="4" ry="3" fill="#C58BA8"/><ellipse cx="456" cy="1449" rx="4" ry="3" fill="#C58BA8"/><ellipse cx="462" cy="1447" rx="4" ry="3" fill="#C58BA8"/><circle cx="460.0" cy="1452" r="2.3" fill="#E7C36A"/><ellipse cx="475" cy="1437" rx="4" ry="3" fill="#C58BA8"/><ellipse cx="472" cy="1442" rx="4" ry="3" fill="#C58BA8"/><ellipse cx="466" cy="1440" rx="4" ry="3" fill="#C58BA8"/><ellipse cx="466" cy="1434" rx="4" ry="3" fill="#C58BA8"/><ellipse cx="472" cy="1432" rx="4" ry="3" fill="#C58BA8"/><circle cx="470.0" cy="1437" r="2.3" fill="#E7C36A"/><ellipse cx="485" cy="1426" rx="4" ry="3" fill="#C58BA8"/><ellipse cx="482" cy="1431" rx="4" ry="3" fill="#C58BA8"/><ellipse cx="476" cy="1429" rx="4" ry="3" fill="#C58BA8"/><ellipse cx="476" cy="1423" rx="4" ry="3" fill="#C58BA8"/><ellipse cx="482" cy="1421" rx="4" ry="3" fill="#C58BA8"/><circle cx="480.0" cy="1426" r="2.3" fill="#E7C36A"/><text x="452.0" y="1518" class="cap" text-anchor="middle">Orchid</text><rect x="600" y="1334" width="264" height="196" rx="16" fill="#F7FAF2" stroke="#E3E9D8"/><path d="M725.0 1434 L729 1440 L733.0 1442 L728 1444 L725.0 1450 L722 1444 L717.0 1442 L721 1440 Z" fill="#6B8659"/><path d="M739.0 1434 L743 1440 L747.0 1442 L742 1444 L739.0 1450 L736 1444 L731.0 1442 L735 1440 Z" fill="#6B8659"/><path d="M732.0 1432 L736 1438 L740.0 1440 L735 1442 L732.0 1448 L729 1442 L724.0 1440 L728 1438 Z" fill="#7E9B6B"/><path d="M726.0 1448 Q706.0 1464 712.0 1496" stroke="#6B8659" stroke-width="2" fill="none"/><path d="M738.0 1448 Q760.0 1466 754.0 1498" stroke="#6B8659" stroke-width="2" fill="none"/><path d="M708.0 1467 L712 1472 L715.0 1474 L711 1476 L708.0 1481 L705 1476 L701.0 1474 L704 1472 Z" fill="#7E9B6B"/><path d="M712.0 1489 L716 1494 L719.0 1496 L715 1498 L712.0 1503 L709 1498 L705.0 1496 L708 1494 Z" fill="#7E9B6B"/><path d="M758.0 1469 L762 1474 L765.0 1476 L761 1478 L758.0 1483 L755 1478 L751.0 1476 L754 1474 Z" fill="#7E9B6B"/><path d="M754.0 1491 L758 1496 L761.0 1498 L757 1500 L754.0 1505 L751 1500 L747.0 1498 L750 1496 Z" fill="#7E9B6B"/><text x="732.0" y="1518" class="cap" text-anchor="middle">English ivy</text><rect x="880" y="1334" width="264" height="196" rx="16" fill="#F7FAF2" stroke="#E3E9D8"/><path d="M1012.0 1484 L1012.0 1458" stroke="#6E5F46" stroke-width="6"/><path d="M1012.0 1464 L996.0 1450" stroke="#6E5F46" stroke-width="4.5"/><path d="M1012.0 1460 L1028.0 1446" stroke="#6E5F46" stroke-width="4.5"/><path d="M1012.0 1458 L1012.0 1440" stroke="#6E5F46" stroke-width="4.5"/><ellipse cx="987.0" cy="1444" rx="6" ry="7" fill="#6B8659"/><ellipse cx="1001.0" cy="1444" rx="6" ry="7" fill="#6B8659"/><ellipse cx="994.0" cy="1437" rx="6" ry="7" fill="#6B8659"/><ellipse cx="990.0" cy="1435" rx="6" ry="7" fill="#6B8659"/><ellipse cx="999.0" cy="1435" rx="6" ry="7" fill="#7E9B6B"/><ellipse cx="1023.0" cy="1440" rx="6" ry="7" fill="#6B8659"/><ellipse cx="1037.0" cy="1440" rx="6" ry="7" fill="#6B8659"/><ellipse cx="1030.0" cy="1433" rx="6" ry="7" fill="#6B8659"/><ellipse cx="1026.0" cy="1431" rx="6" ry="7" fill="#6B8659"/><ellipse cx="1035.0" cy="1431" rx="6" ry="7" fill="#7E9B6B"/><ellipse cx="1005.0" cy="1434" rx="6" ry="7" fill="#6B8659"/><ellipse cx="1019.0" cy="1434" rx="6" ry="7" fill="#6B8659"/><ellipse cx="1012.0" cy="1427" rx="6" ry="7" fill="#6B8659"/><ellipse cx="1008.0" cy="1425" rx="6" ry="7" fill="#6B8659"/><ellipse cx="1017.0" cy="1425" rx="6" ry="7" fill="#7E9B6B"/><text x="1012.0" y="1518" class="cap" text-anchor="middle">Jade</text><rect x="40" y="1546" width="264" height="196" rx="16" fill="#F7FAF2" stroke="#E3E9D8"/><path d="M163 1704 Q153 1672 135 1652 Q155 1676 181 1688 Z" fill="#6B8659"/><path d="M172.0 1690 L141 1659" stroke="#C58A5A" stroke-width="3" fill="none" opacity="0.85"/><path d="M161 1700 Q161 1667 150 1642 Q163 1671 183 1692 Z" fill="#6B8659"/><path d="M172.0 1690 L154 1651" stroke="#C58A5A" stroke-width="3" fill="none" opacity="0.85"/><path d="M160 1697 Q170 1665 168 1638 Q172 1669 184 1695 Z" fill="#6B8659"/><path d="M172.0 1690 L169 1648" stroke="#C58A5A" stroke-width="3" fill="none" opacity="0.85"/><path d="M160 1693 Q179 1666 186 1640 Q181 1670 184 1699 Z" fill="#6B8659"/><path d="M172.0 1690 L184 1649" stroke="#C58A5A" stroke-width="3" fill="none" opacity="0.85"/><path d="M162 1690 Q187 1669 203 1647 Q189 1673 182 1702 Z" fill="#6B8659"/><path d="M172.0 1690 L197 1655" stroke="#C58A5A" stroke-width="3" fill="none" opacity="0.85"/><text x="172.0" y="1730" class="cap" text-anchor="middle">Croton</text><rect x="320" y="1546" width="264" height="196" rx="16" fill="#F7FAF2" stroke="#E3E9D8"/><line x1="452.0" y1="1668" x2="442.0" y2="1644" stroke="#6B8659" stroke-width="3"/><path d="M442.0 1656 C430.0 1636 433.0 1620 442.0 1628 C451.0 1620 454.0 1636 442.0 1656 Z" fill="#6B8659" transform="rotate(-16 442.0 1644)"/><line x1="452.0" y1="1668" x2="462.0" y2="1642" stroke="#6B8659" stroke-width="3"/><path d="M462.0 1654 C450.0 1634 453.0 1618 462.0 1626 C471.0 1618 474.0 1634 462.0 1654 Z" fill="#6B8659" transform="rotate(16 462.0 1642)"/><line x1="452.0" y1="1668" x2="452.0" y2="1634" stroke="#6B8659" stroke-width="3"/><path d="M452.0 1646 C440.0 1626 443.0 1610 452.0 1618 C461.0 1610 464.0 1626 452.0 1646 Z" fill="#5E7E52" transform="rotate(0 452.0 1634)"/><path d="M458.0 1668 Q482.0 1684 476.0 1714" stroke="#6B8659" stroke-width="2.5" fill="none"/><path d="M482.0 1699 C473.0 1684 475.0 1672 482.0 1678 C489.0 1672 491.0 1684 482.0 1699 Z" fill="#5E7E52" transform="rotate(26 482.0 1690)"/><path d="M476.0 1723 C467.0 1708 469.0 1696 476.0 1702 C483.0 1696 485.0 1708 476.0 1723 Z" fill="#5E7E52" transform="rotate(10 476.0 1714)"/><text x="452.0" y="1730" class="cap" text-anchor="middle">Heartleaf philodendron</text><rect x="600" y="1546" width="264" height="196" rx="16" fill="#F7FAF2" stroke="#E3E9D8"/><path d="M714.0 1638 Q732.0 1630 750.0 1638" stroke="#6B8659" stroke-width="3" fill="none"/><path d="M714 1638 L714 1672" stroke="#93A87E" stroke-width="1.2" fill="none"/><circle cx="714" cy="1644" r="3.4" fill="#7E9B6B"/><circle cx="714" cy="1652" r="3.4" fill="#7E9B6B"/><circle cx="714" cy="1660" r="3.4" fill="#7E9B6B"/><circle cx="714" cy="1668" r="3.4" fill="#7E9B6B"/><path d="M723 1638 L723 1680" stroke="#93A87E" stroke-width="1.2" fill="none"/><circle cx="723" cy="1644" r="3.4" fill="#7E9B6B"/><circle cx="723" cy="1652" r="3.4" fill="#7E9B6B"/><circle cx="723" cy="1660" r="3.4" fill="#7E9B6B"/><circle cx="723" cy="1668" r="3.4" fill="#7E9B6B"/><circle cx="723" cy="1676" r="3.4" fill="#7E9B6B"/><path d="M732 1638 L732 1672" stroke="#93A87E" stroke-width="1.2" fill="none"/><circle cx="732" cy="1644" r="3.4" fill="#7E9B6B"/><circle cx="732" cy="1652" r="3.4" fill="#7E9B6B"/><circle cx="732" cy="1660" r="3.4" fill="#7E9B6B"/><circle cx="732" cy="1668" r="3.4" fill="#7E9B6B"/><path d="M741 1638 L741 1680" stroke="#93A87E" stroke-width="1.2" fill="none"/><circle cx="741" cy="1644" r="3.4" fill="#7E9B6B"/><circle cx="741" cy="1652" r="3.4" fill="#7E9B6B"/><circle cx="741" cy="1660" r="3.4" fill="#7E9B6B"/><circle cx="741" cy="1668" r="3.4" fill="#7E9B6B"/><circle cx="741" cy="1676" r="3.4" fill="#7E9B6B"/><path d="M750 1638 L750 1672" stroke="#93A87E" stroke-width="1.2" fill="none"/><circle cx="750" cy="1644" r="3.4" fill="#7E9B6B"/><circle cx="750" cy="1652" r="3.4" fill="#7E9B6B"/><circle cx="750" cy="1660" r="3.4" fill="#7E9B6B"/><circle cx="750" cy="1668" r="3.4" fill="#7E9B6B"/><text x="732.0" y="1730" class="cap" text-anchor="middle">String of pearls</text><rect x="880" y="1546" width="264" height="196" rx="16" fill="#F7FAF2" stroke="#E3E9D8"/><ellipse cx="1000" cy="1672" rx="11" ry="20" fill="#6B8659" transform="rotate(-38 1000 1672)"/><ellipse cx="1000" cy="1672" rx="5" ry="14" fill="#A9C08D" opacity="0.7" transform="rotate(-38 1000 1672)"/><ellipse cx="1007" cy="1667" rx="11" ry="20" fill="#6B8659" transform="rotate(-14 1007 1667)"/><ellipse cx="1007" cy="1667" rx="5" ry="14" fill="#A9C08D" opacity="0.7" transform="rotate(-14 1007 1667)"/><ellipse cx="1016" cy="1667" rx="11" ry="20" fill="#6B8659" transform="rotate(12 1016 1667)"/><ellipse cx="1016" cy="1667" rx="5" ry="14" fill="#A9C08D" opacity="0.7" transform="rotate(12 1016 1667)"/><ellipse cx="1023" cy="1671" rx="11" ry="20" fill="#6B8659" transform="rotate(34 1023 1671)"/><ellipse cx="1023" cy="1671" rx="5" ry="14" fill="#A9C08D" opacity="0.7" transform="rotate(34 1023 1671)"/><text x="1012.0" y="1730" class="cap" text-anchor="middle">Calathea</text></svg>
