<svg viewBox="0 0 1200 950" xmlns="http://www.w3.org/2000/svg"><style>
.h1{font-family:'Baloo 2',sans-serif;font-weight:800;font-size:34px;fill:#1E2A18}
.h2{font-family:'Hanken Grotesk',sans-serif;font-size:16px;fill:#6F7E62}
.eyebrow{font-family:'JetBrains Mono',monospace;font-size:13px;font-weight:600;fill:#6F7E62;letter-spacing:2px}
.cap{font-family:'Hanken Grotesk',sans-serif;font-size:14px;fill:#3C4A34}
.more{font-family:'Baloo 2',sans-serif;font-weight:700;font-size:22px;fill:#9AA88C}
</style><rect width="1200" height="950" fill="#EEF4E6"/><text x="40" y="52" class="h1">Identity asset library — v1</text><text x="40" y="80" class="h2">Original flat artwork in the muted register (charter rule 3). Icons compose: a plant silhouette sits in a pot</text><text x="40" y="100" class="h2">shape, tinted from the materials palette. State colour lives only on the card frame — never here.</text><text x="40" y="132" class="eyebrow">MUTED MATERIALS — THE SATURATION CEILING FOR IDENTITY</text><rect x="40" y="144" width="126" height="46" rx="10" fill="#B98F6F"/><text x="103.0" y="210" class="cap" text-anchor="middle">terracotta</text><rect x="174" y="144" width="126" height="46" rx="10" fill="#C08A6A"/><text x="237.0" y="210" class="cap" text-anchor="middle">clay</text><rect x="308" y="144" width="126" height="46" rx="10" fill="#9AA6A0"/><text x="371.0" y="210" class="cap" text-anchor="middle">stoneware</text><rect x="442" y="144" width="126" height="46" rx="10" fill="#A59E93"/><text x="505.0" y="210" class="cap" text-anchor="middle">stone</text><rect x="576" y="144" width="126" height="46" rx="10" fill="#8FA3B0"/><text x="639.0" y="210" class="cap" text-anchor="middle">ceramic</text><rect x="710" y="144" width="126" height="46" rx="10" fill="#E3DAC2"/><text x="773.0" y="210" class="cap" text-anchor="middle">cream</text><rect x="844" y="144" width="126" height="46" rx="10" fill="#A9B7A0"/><text x="907.0" y="210" class="cap" text-anchor="middle">sage-glaze</text><rect x="978" y="144" width="126" height="46" rx="10" fill="#52585A"/><text x="1041.0" y="210" class="cap" text-anchor="middle">charcoal</text><text x="40" y="262" class="eyebrow">POT SHAPES — FORM ONLY (6)</text><rect x="48" y="278" width="170" height="118" rx="14" fill="#F7FAF2" stroke="#E3E9D8"/><g><path d="M103.0 330 L163.0 330 L155.0 376 Q133.0 380 111.0 376 Z" fill="#B98F6F"/><rect x="99.0" y="324" width="68" height="9" rx="4" fill="#A87E5F"/></g><text x="133.0" y="418" class="cap" text-anchor="middle">tapered classic</text><rect x="234" y="278" width="170" height="118" rx="14" fill="#F7FAF2" stroke="#E3E9D8"/><g><rect x="295.0" y="328" width="48" height="48" rx="4" fill="#B98F6F"/><rect x="291.0" y="322" width="56" height="9" rx="4" fill="#A87E5F"/></g><text x="319.0" y="418" class="cap" text-anchor="middle">straight-wall</text><rect x="420" y="278" width="170" height="118" rx="14" fill="#F7FAF2" stroke="#E3E9D8"/><g><path d="M473.0 346 Q473.0 376 505.0 376 Q537.0 376 537.0 346 Q537.0 330 505.0 330 Q473.0 330 473.0 346 Z" fill="#B98F6F"/><rect x="475.0" y="326" width="60" height="9" rx="4" fill="#A87E5F"/></g><text x="505.0" y="418" class="cap" text-anchor="middle">kettle / round</text><rect x="606" y="278" width="170" height="118" rx="14" fill="#F7FAF2" stroke="#E3E9D8"/><g><path d="M657.0 350 Q661.0 376 691.0 376 Q721.0 376 725.0 350 Z" fill="#B98F6F"/><rect x="655.0" y="346 " width="72" height="8" rx="4" fill="#A87E5F"/></g><text x="691.0" y="418" class="cap" text-anchor="middle">low bowl</text><rect x="792" y="278" width="170" height="118" rx="14" fill="#F7FAF2" stroke="#E3E9D8"/><g><path d="M849.0 332 L905.0 332 L899.0 364 L855.0 364 Z" fill="#B98F6F"/><rect x="845.0" y="326" width="64" height="9" rx="4" fill="#A87E5F"/><path d="M863.0 364 L857.0 376 L871.0 376 Z" fill="#A87E5F"/><path d="M891.0 364 L897.0 376 L883.0 376 Z" fill="#A87E5F"/></g><text x="877.0" y="418" class="cap" text-anchor="middle">footed</text><rect x="978" y="278" width="170" height="118" rx="14" fill="#F7FAF2" stroke="#E3E9D8"/><g><rect x="1037.0" y="328" width="52" height="48" rx="6" fill="#B98F6F"/><ellipse cx="1063.0" cy="328" rx="26" ry="7" fill="#A87E5F"/></g><text x="1063.0" y="418" class="cap" text-anchor="middle">cylinder</text><text x="40" y="470" class="eyebrow">PLANT SILHOUETTES — V1: 7 OF ~20 (REST TRACKED IN #1121)</text><rect x="40" y="486" width="264" height="196" rx="16" fill="#F7FAF2" stroke="#E3E9D8"/><g><line x1="172.0" y1="610" x2="156.0" y2="580" stroke="#6B8659" stroke-width="3"/><ellipse cx="156.0" cy="580" rx="13" ry="16" fill="#7E9B6B" transform="rotate(-18 156.0 580)"/><line x1="172.0" y1="610" x2="188.0" y2="580" stroke="#6B8659" stroke-width="3"/><ellipse cx="188.0" cy="580" rx="13" ry="16" fill="#7E9B6B" transform="rotate(18 188.0 580)"/><line x1="172.0" y1="610" x2="172.0" y2="570" stroke="#6B8659" stroke-width="3"/><ellipse cx="172.0" cy="570" rx="13" ry="16" fill="#7E9B6B" transform="rotate(0 172.0 570)"/><line x1="172.0" y1="610" x2="164.0" y2="588" stroke="#6B8659" stroke-width="3"/><ellipse cx="164.0" cy="588" rx="13" ry="16" fill="#7E9B6B" transform="rotate(-30 164.0 588)"/><line x1="172.0" y1="610" x2="181.0" y2="586" stroke="#6B8659" stroke-width="3"/><ellipse cx="181.0" cy="586" rx="13" ry="16" fill="#6B8659" transform="rotate(28 181.0 586)"/><path d="M162.0 610 Q138.0 626 146.0 654" fill="none" stroke="#6B8659" stroke-width="2.5"/><path d="M182.0 610 Q208.0 628 200.0 656" fill="none" stroke="#6B8659" stroke-width="2.5"/><ellipse cx="140.0" cy="632" rx="9" ry="11" fill="#7E9B6B" transform="rotate(-30 140.0 632)"/><ellipse cx="146.0" cy="654" rx="9" ry="11" fill="#7E9B6B" transform="rotate(-10 146.0 654)"/><ellipse cx="206.0" cy="634" rx="9" ry="11" fill="#7E9B6B" transform="rotate(30 206.0 634)"/><ellipse cx="200.0" cy="656" rx="9" ry="11" fill="#7E9B6B" transform="rotate(10 200.0 656)"/></g><text x="172.0" y="670" class="cap" text-anchor="middle">Pothos</text><rect x="320" y="486" width="264" height="196" rx="16" fill="#F7FAF2" stroke="#E3E9D8"/><g><path d="M424.0 636 Q423.0 590 430.0 562 Q437.0 590 436.0 636 Z" fill="#7E9B6B" transform="rotate(-14 430.0 636)"/><path d="M430.0 636 Q430.0 596 430.0 566" stroke="#93A87E" stroke-width="1.5" fill="none" transform="rotate(-14 430.0 636)"/><path d="M436.0 636 Q435.0 590 442.0 562 Q449.0 590 448.0 636 Z" fill="#7E9B6B" transform="rotate(-6 442.0 636)"/><path d="M442.0 636 Q442.0 596 442.0 566" stroke="#93A87E" stroke-width="1.5" fill="none" transform="rotate(-6 442.0 636)"/><path d="M448.0 636 Q447.0 590 454.0 562 Q461.0 590 460.0 636 Z" fill="#7E9B6B" transform="rotate(2 454.0 636)"/><path d="M454.0 636 Q454.0 596 454.0 566" stroke="#93A87E" stroke-width="1.5" fill="none" transform="rotate(2 454.0 636)"/><path d="M460.0 636 Q459.0 590 466.0 562 Q473.0 590 472.0 636 Z" fill="#7E9B6B" transform="rotate(9 466.0 636)"/><path d="M466.0 636 Q466.0 596 466.0 566" stroke="#93A87E" stroke-width="1.5" fill="none" transform="rotate(9 466.0 636)"/><path d="M470.0 636 Q469.0 590 476.0 562 Q483.0 590 482.0 636 Z" fill="#7E9B6B" transform="rotate(15 476.0 636)"/><path d="M476.0 636 Q476.0 596 476.0 566" stroke="#93A87E" stroke-width="1.5" fill="none" transform="rotate(15 476.0 636)"/></g><text x="452.0" y="670" class="cap" text-anchor="middle">Snake plant</text><rect x="600" y="486" width="264" height="196" rx="16" fill="#F7FAF2" stroke="#E3E9D8"/><g><path d="M732.0 636 Q721 596 704.0 578" stroke="#6B8659" stroke-width="2.5" fill="none"/><ellipse cx="719.4" cy="609.9" rx="7" ry="10" fill="#7E9B6B" transform="rotate(-40 719.4 609.9)"/><ellipse cx="713.8" cy="598.3" rx="7" ry="10" fill="#7E9B6B" transform="rotate(-40 713.8 598.3)"/><ellipse cx="708.2" cy="586.7" rx="7" ry="10" fill="#7E9B6B" transform="rotate(-40 708.2 586.7)"/><ellipse cx="704.0" cy="578.0" rx="7" ry="10" fill="#7E9B6B" transform="rotate(-40 704.0 578.0)"/><path d="M732.0 636 Q716 596 692.0 606" stroke="#6B8659" stroke-width="2.5" fill="none"/><ellipse cx="714.0" cy="622.5" rx="7" ry="10" fill="#7E9B6B" transform="rotate(-40 714.0 622.5)"/><ellipse cx="706.0" cy="616.5" rx="7" ry="10" fill="#7E9B6B" transform="rotate(-40 706.0 616.5)"/><ellipse cx="698.0" cy="610.5" rx="7" ry="10" fill="#7E9B6B" transform="rotate(-40 698.0 610.5)"/><ellipse cx="692.0" cy="606.0" rx="7" ry="10" fill="#7E9B6B" transform="rotate(-40 692.0 606.0)"/><path d="M732.0 636 Q726 596 718.0 570" stroke="#6B8659" stroke-width="2.5" fill="none"/><ellipse cx="725.7" cy="606.3" rx="7" ry="10" fill="#7E9B6B" transform="rotate(-40 725.7 606.3)"/><ellipse cx="722.9" cy="593.1" rx="7" ry="10" fill="#7E9B6B" transform="rotate(-40 722.9 593.1)"/><ellipse cx="720.1" cy="579.9" rx="7" ry="10" fill="#7E9B6B" transform="rotate(-40 720.1 579.9)"/><ellipse cx="718.0" cy="570.0" rx="7" ry="10" fill="#7E9B6B" transform="rotate(-40 718.0 570.0)"/><path d="M732.0 636 Q743 596 760.0 578" stroke="#6B8659" stroke-width="2.5" fill="none"/><ellipse cx="744.6" cy="609.9" rx="7" ry="10" fill="#7E9B6B" transform="rotate(40 744.6 609.9)"/><ellipse cx="750.2" cy="598.3" rx="7" ry="10" fill="#7E9B6B" transform="rotate(40 750.2 598.3)"/><ellipse cx="755.8" cy="586.7" rx="7" ry="10" fill="#7E9B6B" transform="rotate(40 755.8 586.7)"/><ellipse cx="760.0" cy="578.0" rx="7" ry="10" fill="#7E9B6B" transform="rotate(40 760.0 578.0)"/><path d="M732.0 636 Q748 596 772.0 606" stroke="#6B8659" stroke-width="2.5" fill="none"/><ellipse cx="750.0" cy="622.5" rx="7" ry="10" fill="#7E9B6B" transform="rotate(40 750.0 622.5)"/><ellipse cx="758.0" cy="616.5" rx="7" ry="10" fill="#7E9B6B" transform="rotate(40 758.0 616.5)"/><ellipse cx="766.0" cy="610.5" rx="7" ry="10" fill="#7E9B6B" transform="rotate(40 766.0 610.5)"/><ellipse cx="772.0" cy="606.0" rx="7" ry="10" fill="#7E9B6B" transform="rotate(40 772.0 606.0)"/><path d="M732.0 636 Q738 596 746.0 570" stroke="#6B8659" stroke-width="2.5" fill="none"/><ellipse cx="738.3" cy="606.3" rx="7" ry="10" fill="#7E9B6B" transform="rotate(40 738.3 606.3)"/><ellipse cx="741.1" cy="593.1" rx="7" ry="10" fill="#7E9B6B" transform="rotate(40 741.1 593.1)"/><ellipse cx="743.9" cy="579.9" rx="7" ry="10" fill="#7E9B6B" transform="rotate(40 743.9 579.9)"/><ellipse cx="746.0" cy="570.0" rx="7" ry="10" fill="#7E9B6B" transform="rotate(40 746.0 570.0)"/><ellipse cx="732.0" cy="572" rx="8" ry="12" fill="#7E9B6B" transform="rotate(0 732.0 572)"/></g><text x="732.0" y="670" class="cap" text-anchor="middle">ZZ plant</text><rect x="880" y="486" width="264" height="196" rx="16" fill="#F7FAF2" stroke="#E3E9D8"/><g><line x1="1012.0" y1="636" x2="996.0" y2="602" stroke="#6B8659" stroke-width="3"/><line x1="1012.0" y1="636" x2="1026.0" y2="596" stroke="#6B8659" stroke-width="3"/><line x1="1012.0" y1="636" x2="1012.0" y2="616" stroke="#6B8659" stroke-width="3"/><g transform="translate(994.0 596) rotate(-18) scale(1.05)"><path d="M0 8 C-30 4 -34 -30 -6 -44 C22 -34 30 -6 0 8 Z" fill="#6B8659"/><path d="M-2 4 L-16 -6" stroke="#F7FAF2" stroke-width="3"/><path d="M-4 -8 L-20 -16" stroke="#F7FAF2" stroke-width="3"/><path d="M0 -20 L-14 -28" stroke="#F7FAF2" stroke-width="3"/><circle cx="6" cy="-18" r="2.6" fill="#F7FAF2"/></g><g transform="translate(1030.0 590) rotate(18) scale(1.15)"><path d="M0 8 C-30 4 -34 -30 -6 -44 C22 -34 30 -6 0 8 Z" fill="#7E9B6B"/><path d="M-2 4 L-16 -6" stroke="#F7FAF2" stroke-width="3"/><path d="M-4 -8 L-20 -16" stroke="#F7FAF2" stroke-width="3"/><path d="M0 -20 L-14 -28" stroke="#F7FAF2" stroke-width="3"/><circle cx="6" cy="-18" r="2.6" fill="#F7FAF2"/></g><g transform="translate(1012.0 612) rotate(2) scale(0.8)"><path d="M0 8 C-30 4 -34 -30 -6 -44 C22 -34 30 -6 0 8 Z" fill="#7E9B6B"/><path d="M-2 4 L-16 -6" stroke="#F7FAF2" stroke-width="3"/><path d="M-4 -8 L-20 -16" stroke="#F7FAF2" stroke-width="3"/><path d="M0 -20 L-14 -28" stroke="#F7FAF2" stroke-width="3"/><circle cx="6" cy="-18" r="2.6" fill="#F7FAF2"/></g></g><text x="1012.0" y="670" class="cap" text-anchor="middle">Monstera</text><rect x="40" y="698" width="264" height="196" rx="16" fill="#F7FAF2" stroke="#E3E9D8"/><g><rect x="168.0" y="808" width="8" height="40" rx="3" fill="#7C6A4E"/><rect x="163.0" y="790" width="9" height="20" rx="3" fill="#7C6A4E" transform="rotate(-14 166.0 800)"/><path d="M163.0 792 Q157 766 142 761 L146 764 Q160 770 169.0 792 Z" fill="#6B8659"/><path d="M163.0 792 Q160 766 151 749 L155 752 Q163 770 169.0 792 Z" fill="#7E9B6B"/><path d="M163.0 792 Q164 766 161 743 L165 746 Q167 770 169.0 792 Z" fill="#6B8659"/><path d="M163.0 792 Q168 766 172 743 L176 746 Q171 770 169.0 792 Z" fill="#7E9B6B"/><path d="M163.0 792 Q173 766 183 751 L187 754 Q176 770 169.0 792 Z" fill="#6B8659"/><path d="M163.0 792 Q176 766 190 763 L194 766 Q179 770 169.0 792 Z" fill="#7E9B6B"/></g><text x="172.0" y="882" class="cap" text-anchor="middle">Dracaena</text><rect x="320" y="698" width="264" height="196" rx="16" fill="#F7FAF2" stroke="#E3E9D8"/><g><line x1="452.0" y1="848" x2="434.0" y2="818" stroke="#6B8659" stroke-width="3"/><path d="M434.0 828 C418.0 812 422.0 796 434.0 806 C446.0 796 450.0 812 434.0 828 Z" fill="#6B8659" transform="rotate(-24 434.0 818)"/><line x1="452.0" y1="848" x2="468.0" y2="814" stroke="#6B8659" stroke-width="3"/><path d="M468.0 824 C452.0 808 456.0 792 468.0 802 C480.0 792 484.0 808 468.0 824 Z" fill="#7E9B6B" transform="rotate(22 468.0 814)"/><line x1="452.0" y1="848" x2="450.0" y2="804" stroke="#6B8659" stroke-width="3"/><path d="M450.0 814 C434.0 798 438.0 782 450.0 792 C462.0 782 466.0 798 450.0 814 Z" fill="#7E9B6B" transform="rotate(-4 450.0 804)"/><line x1="452.0" y1="848" x2="474.0" y2="832" stroke="#6B8659" stroke-width="3"/><path d="M474.0 841 C463.0 829 466.0 816 474.0 823 C482.0 816 485.0 829 474.0 841 Z" fill="#C56B5C"/><path d="M475.0 825 Q479.0 816 477.0 810" stroke="#E7D9A8" stroke-width="3" fill="none"/></g><text x="452.0" y="882" class="cap" text-anchor="middle">Anthurium</text><rect x="600" y="698" width="264" height="196" rx="16" fill="#F7FAF2" stroke="#E3E9D8"/><g><path d="M727.0 846 Q719 818 701 820 L706 824 Q724 822 737.0 846 Z" fill="#7E9B6B"/><path d="M727.0 846 Q723 818 709 806 L714 810 Q728 822 737.0 846 Z" fill="#7E9B6B"/><path d="M727.0 846 Q727 818 720 797 L725 801 Q732 822 737.0 846 Z" fill="#7E9B6B"/><path d="M727.0 846 Q732 818 732 794 L737 798 Q737 822 737.0 846 Z" fill="#7E9B6B"/><path d="M727.0 846 Q737 818 744 797 L749 801 Q742 822 737.0 846 Z" fill="#7E9B6B"/><path d="M727.0 846 Q741 818 755 806 L760 810 Q746 822 737.0 846 Z" fill="#7E9B6B"/><path d="M727.0 846 Q745 818 763 820 L768 824 Q750 822 737.0 846 Z" fill="#7E9B6B"/><path d="M726.0 828 L722.0 804 L730.0 804 Z" fill="#CE8A6E"/><path d="M732.0 828 L728.0 804 L736.0 804 Z" fill="#CE8A6E"/><path d="M738.0 828 L734.0 804 L742.0 804 Z" fill="#CE8A6E"/></g><text x="732.0" y="882" class="cap" text-anchor="middle">Bromeliad</text><rect x="880" y="698" width="264" height="196" rx="16" fill="none" stroke="#E3E9D8" stroke-dasharray="6 6"/><text x="1012.0" y="796.0" class="more" text-anchor="middle">+13 more</text><text x="1012.0" y="818.0" class="cap" text-anchor="middle">monstera size variants,</text><text x="1012.0" y="836.0" class="cap" text-anchor="middle">fern, palm, orchid, aloe…</text></svg>
