<svg viewBox="0 0 1360 978" xmlns="http://www.w3.org/2000/svg"><style>
.h1{font-family:'Baloo 2',sans-serif;font-weight:800;font-size:40px;fill:#1E2A18}
.h2{font-family:'Hanken Grotesk',sans-serif;font-size:18px;fill:#6F7E62}
.eyebrow{font-family:'JetBrains Mono',monospace;font-size:14px;font-weight:600;fill:#6F7E62;letter-spacing:2px}
.colcap{font-family:'Baloo 2',sans-serif;font-weight:700;font-size:22px;fill:#1E2A18}
.colsub{font-family:'Hanken Grotesk',sans-serif;font-size:14px;fill:#6F7E62}
.name{font-family:'Baloo 2',sans-serif;font-weight:700;font-size:24px;fill:#1E2A18}
.num{font-family:'JetBrains Mono',monospace;font-size:15px;fill:#6F7E62}
.meta{font-family:'Hanken Grotesk',sans-serif;font-size:14px;fill:#6F7E62}
.chip{font-family:'Hanken Grotesk',sans-serif;font-size:13px;fill:#3C4A34}
.mood{font-family:'Baloo 2',sans-serif;font-weight:800;font-size:30px;fill:#1E2A18}
.bandtag{font-family:'JetBrains Mono',monospace;font-size:12px;fill:#8A9880}
.say{font-family:'Hanken Grotesk',sans-serif;font-size:17px;fill:#2C3A24}
.wlabel{font-family:'JetBrains Mono',monospace;font-size:11px;font-weight:600;fill:#8A9880;letter-spacing:1.5px}
.wval{font-family:'Hanken Grotesk',sans-serif;font-size:16px;fill:#1E2A18}
.foot{font-family:'Hanken Grotesk',sans-serif;font-size:14px;fill:#6F7E62}
.tiny{font-family:'Hanken Grotesk',sans-serif;font-size:11px;fill:#9A8480}
.today-title{font-family:'Baloo 2',sans-serif;font-weight:700;font-size:22px;fill:#1E2A18}
.rawbig{font-family:'Baloo 2',sans-serif;font-weight:800;font-size:72px;fill:#1E2A18}
.rawlab{font-family:'JetBrains Mono',monospace;font-size:13px;font-weight:600;fill:#8A9880;letter-spacing:2px}
.today-band{font-family:'Baloo 2',sans-serif;font-weight:700;font-size:24px;fill:#3C4A34}
.idx{font-family:'Hanken Grotesk',sans-serif;font-size:13px;fill:#9A8480}
.pin{font-family:'Hanken Grotesk',sans-serif;font-size:13px;font-style:italic;fill:#6F7E62}
.gname{font-family:'Baloo 2',sans-serif;font-weight:700;font-size:19px;fill:#1E2A18}
.gmeta{font-family:'Hanken Grotesk',sans-serif;font-size:13px;fill:#6F7E62}
.gmood{font-family:'Baloo 2',sans-serif;font-weight:800;font-size:22px;fill:#1E2A18}
.gsay{font-family:'Hanken Grotesk',sans-serif;font-size:15px;fill:#2C3A24}
.graw{font-family:'Baloo 2',sans-serif;font-weight:800;font-size:44px;fill:#1E2A18}
.grawlab{font-family:'JetBrains Mono',monospace;font-size:11px;font-weight:600;fill:#8A9880;letter-spacing:1.5px}
.tname{font-family:'Baloo 2',sans-serif;font-weight:700;font-size:13px;fill:#1E2A18}
.tmood{font-family:'Baloo 2',sans-serif;font-weight:800;font-size:20px;fill:#1E2A18}
.tmeta{font-family:'Hanken Grotesk',sans-serif;font-size:12px;fill:#6F7E62}
.traw{font-family:'Baloo 2',sans-serif;font-weight:800;font-size:28px;fill:#1E2A18}
.tband{font-family:'Hanken Grotesk',sans-serif;font-size:13px;fill:#6F7E62}
</style><rect width="1360" height="978" fill="#EEF4E6"/><text x="56" y="66" class="h1">Twenty-four plants (n=24) — today vs. proposed</text><text x="56" y="98" class="h2">At a full windowsill, the warm frames are the whole interface: the plants that need water announce themselves — you see them without reading a thing.</text><text x="38" y="156" class="colcap">Today · a wall of numbers</text><g transform="translate(38 170)"><rect width="150" height="104" rx="14" fill="#FFFFFF" stroke="#E3E9D8" stroke-width="1.5"/><text x="12" y="24" class="tname">Monstera #1</text><text x="75.0" y="66" class="traw" text-anchor="middle">2418</text><text x="75.0" y="88" class="tband" text-anchor="middle">Ideal</text></g><g transform="translate(200 170)"><rect width="150" height="104" rx="14" fill="#FFFFFF" stroke="#E3E9D8" stroke-width="1.5"/><text x="12" y="24" class="tname">Fern #2</text><text x="75.0" y="66" class="traw" text-anchor="middle">2205</text><text x="75.0" y="88" class="tband" text-anchor="middle">Moist</text></g><g transform="translate(362 170)"><rect width="150" height="104" rx="14" fill="#FFFFFF" stroke="#E3E9D8" stroke-width="1.5"/><text x="12" y="24" class="tname">Basil #3</text><text x="75.0" y="66" class="traw" text-anchor="middle">2380</text><text x="75.0" y="88" class="tband" text-anchor="middle">Ideal</text></g><g transform="translate(524 170)"><rect width="150" height="104" rx="14" fill="#FFFFFF" stroke="#E3E9D8" stroke-width="1.5"/><text x="12" y="24" class="tname">Aloe #4</text><text x="75.0" y="66" class="traw" text-anchor="middle">2150</text><text x="75.0" y="88" class="tband" text-anchor="middle">Moist</text></g><g transform="translate(686 170)"><rect width="150" height="104" rx="14" fill="#FFFFFF" stroke="#E3E9D8" stroke-width="1.5"/><text x="12" y="24" class="tname">Pothos #5</text><text x="75.0" y="66" class="traw" text-anchor="middle">2460</text><text x="75.0" y="88" class="tband" text-anchor="middle">Ideal</text></g><g transform="translate(848 170)"><rect width="150" height="104" rx="14" fill="#FFFFFF" stroke="#E3E9D8" stroke-width="1.5"/><text x="12" y="24" class="tname">Ivy #6</text><text x="75.0" y="66" class="traw" text-anchor="middle">2100</text><text x="75.0" y="88" class="tband" text-anchor="middle">Moist</text></g><g transform="translate(1010 170)"><rect width="150" height="104" rx="14" fill="#FFFFFF" stroke="#E3E9D8" stroke-width="1.5"/><text x="12" y="24" class="tname">Mint #7</text><text x="75.0" y="66" class="traw" text-anchor="middle">3120</text><text x="75.0" y="88" class="tband" text-anchor="middle">Drying</text></g><g transform="translate(1172 170)"><rect width="150" height="104" rx="14" fill="#FFFFFF" stroke="#E3E9D8" stroke-width="1.5"/><text x="12" y="24" class="tname">Sage #8</text><text x="75.0" y="66" class="traw" text-anchor="middle">2340</text><text x="75.0" y="88" class="tband" text-anchor="middle">Ideal</text></g><g transform="translate(38 286)"><rect width="150" height="104" rx="14" fill="#FFFFFF" stroke="#E3E9D8" stroke-width="1.5"/><text x="12" y="24" class="tname">Fig #9</text><text x="75.0" y="66" class="traw" text-anchor="middle">2210</text><text x="75.0" y="88" class="tband" text-anchor="middle">Moist</text></g><g transform="translate(200 286)"><rect width="150" height="104" rx="14" fill="#FFFFFF" stroke="#E3E9D8" stroke-width="1.5"/><text x="12" y="24" class="tname">Palm #10</text><text x="75.0" y="66" class="traw" text-anchor="middle">2400</text><text x="75.0" y="88" class="tband" text-anchor="middle">Ideal</text></g><g transform="translate(362 286)"><rect width="150" height="104" rx="14" fill="#FFFFFF" stroke="#E3E9D8" stroke-width="1.5"/><text x="12" y="24" class="tname">Cactus #11</text><text x="75.0" y="66" class="traw" text-anchor="middle">3450</text><text x="75.0" y="88" class="tband" text-anchor="middle">Dry</text></g><g transform="translate(524 286)"><rect width="150" height="104" rx="14" fill="#FFFFFF" stroke="#E3E9D8" stroke-width="1.5"/><text x="12" y="24" class="tname">Orchid #12</text><text x="75.0" y="66" class="traw" text-anchor="middle">2260</text><text x="75.0" y="88" class="tband" text-anchor="middle">Moist</text></g><g transform="translate(686 286)"><rect width="150" height="104" rx="14" fill="#FFFFFF" stroke="#E3E9D8" stroke-width="1.5"/><text x="12" y="24" class="tname">Jade #13</text><text x="75.0" y="66" class="traw" text-anchor="middle">2420</text><text x="75.0" y="88" class="tband" text-anchor="middle">Ideal</text></g><g transform="translate(848 286)"><rect width="150" height="104" rx="14" fill="#FFFFFF" stroke="#E3E9D8" stroke-width="1.5"/><text x="12" y="24" class="tname">Thyme #14</text><text x="75.0" y="66" class="traw" text-anchor="middle">2180</text><text x="75.0" y="88" class="tband" text-anchor="middle">Moist</text></g><g transform="translate(1010 286)"><rect width="150" height="104" rx="14" fill="#FFFFFF" stroke="#E3E9D8" stroke-width="1.5"/><text x="12" y="24" class="tname">Lily #15</text><text x="75.0" y="66" class="traw" text-anchor="middle">2440</text><text x="75.0" y="88" class="tband" text-anchor="middle">Ideal</text></g><g transform="translate(1172 286)"><rect width="150" height="104" rx="14" fill="#FFFFFF" stroke="#E3E9D8" stroke-width="1.5"/><text x="12" y="24" class="tname">Rubber #16</text><text x="75.0" y="66" class="traw" text-anchor="middle">1760</text><text x="75.0" y="88" class="tband" text-anchor="middle">Wet</text></g><g transform="translate(38 402)"><rect width="150" height="104" rx="14" fill="#FFFFFF" stroke="#E3E9D8" stroke-width="1.5"/><text x="12" y="24" class="tname">Snake #17</text><text x="75.0" y="66" class="traw" text-anchor="middle">2200</text><text x="75.0" y="88" class="tband" text-anchor="middle">Moist</text></g><g transform="translate(200 402)"><rect width="150" height="104" rx="14" fill="#FFFFFF" stroke="#E3E9D8" stroke-width="1.5"/><text x="12" y="24" class="tname">ZZ #18</text><text x="75.0" y="66" class="traw" text-anchor="middle">2410</text><text x="75.0" y="88" class="tband" text-anchor="middle">Ideal</text></g><g transform="translate(362 402)"><rect width="150" height="104" rx="14" fill="#FFFFFF" stroke="#E3E9D8" stroke-width="1.5"/><text x="12" y="24" class="tname">Spider #19</text><text x="75.0" y="66" class="traw" text-anchor="middle">3600</text><text x="75.0" y="88" class="tband" text-anchor="middle">Parched</text></g><g transform="translate(524 402)"><rect width="150" height="104" rx="14" fill="#FFFFFF" stroke="#E3E9D8" stroke-width="1.5"/><text x="12" y="24" class="tname">Olive #20</text><text x="75.0" y="66" class="traw" text-anchor="middle">2390</text><text x="75.0" y="88" class="tband" text-anchor="middle">Ideal</text></g><g transform="translate(686 402)"><rect width="150" height="104" rx="14" fill="#FFFFFF" stroke="#E3E9D8" stroke-width="1.5"/><text x="12" y="24" class="tname">Bay #21</text><text x="75.0" y="66" class="traw" text-anchor="middle">2190</text><text x="75.0" y="88" class="tband" text-anchor="middle">Moist</text></g><g transform="translate(848 402)"><rect width="150" height="104" rx="14" fill="#FFFFFF" stroke="#E3E9D8" stroke-width="1.5"/><text x="12" y="24" class="tname">Chard #22</text><text x="75.0" y="66" class="traw" text-anchor="middle">2430</text><text x="75.0" y="88" class="tband" text-anchor="middle">Ideal</text></g><g transform="translate(1010 402)"><rect width="150" height="104" rx="14" fill="#FFFFFF" stroke="#E3E9D8" stroke-width="1.5"/><text x="12" y="24" class="tname">Yucca #23</text><text x="75.0" y="66" class="traw" text-anchor="middle">3090</text><text x="75.0" y="88" class="tband" text-anchor="middle">Drying</text></g><g transform="translate(1172 402)"><rect width="150" height="104" rx="14" fill="#FFFFFF" stroke="#E3E9D8" stroke-width="1.5"/><text x="12" y="24" class="tname">Calla #24</text><text x="75.0" y="66" class="traw" text-anchor="middle">2170</text><text x="75.0" y="88" class="tband" text-anchor="middle">Moist</text></g><text x="38" y="564" class="colcap">Proposed · color finds the plant that needs you</text><g transform="translate(38 578)"><rect width="150" height="104" rx="14" fill="#FFFFFF" stroke="#8BD24F" stroke-width="3"/><rect x="0" y="0" width="150" height="30" rx="14" fill="#8BD24F" opacity="0.16"/><rect x="0" y="16" width="150" height="14" fill="#8BD24F" opacity="0.16"/><circle cx="18" cy="15" r="6" fill="#8BD24F"/><text x="30" y="20" class="tname">Monstera #1</text><text x="14" y="60" class="tmood">Content</text><text x="14" y="86" class="tmeta">all good</text></g><g transform="translate(200 578)"><rect width="150" height="104" rx="14" fill="#FFFFFF" stroke="#34A853" stroke-width="3"/><rect x="0" y="0" width="150" height="30" rx="14" fill="#34A853" opacity="0.16"/><rect x="0" y="16" width="150" height="14" fill="#34A853" opacity="0.16"/><circle cx="18" cy="15" r="6" fill="#34A853"/><text x="30" y="20" class="tname">Fern #2</text><text x="14" y="60" class="tmood">Thriving</text><text x="14" y="86" class="tmeta">all good</text></g><g transform="translate(362 578)"><rect width="150" height="104" rx="14" fill="#FFFFFF" stroke="#8BD24F" stroke-width="3"/><rect x="0" y="0" width="150" height="30" rx="14" fill="#8BD24F" opacity="0.16"/><rect x="0" y="16" width="150" height="14" fill="#8BD24F" opacity="0.16"/><circle cx="18" cy="15" r="6" fill="#8BD24F"/><text x="30" y="20" class="tname">Basil #3</text><text x="14" y="60" class="tmood">Content</text><text x="14" y="86" class="tmeta">all good</text></g><g transform="translate(524 578)"><rect width="150" height="104" rx="14" fill="#FFFFFF" stroke="#34A853" stroke-width="3"/><rect x="0" y="0" width="150" height="30" rx="14" fill="#34A853" opacity="0.16"/><rect x="0" y="16" width="150" height="14" fill="#34A853" opacity="0.16"/><circle cx="18" cy="15" r="6" fill="#34A853"/><text x="30" y="20" class="tname">Aloe #4</text><text x="14" y="60" class="tmood">Thriving</text><text x="14" y="86" class="tmeta">all good</text></g><g transform="translate(686 578)"><rect width="150" height="104" rx="14" fill="#FFFFFF" stroke="#8BD24F" stroke-width="3"/><rect x="0" y="0" width="150" height="30" rx="14" fill="#8BD24F" opacity="0.16"/><rect x="0" y="16" width="150" height="14" fill="#8BD24F" opacity="0.16"/><circle cx="18" cy="15" r="6" fill="#8BD24F"/><text x="30" y="20" class="tname">Pothos #5</text><text x="14" y="60" class="tmood">Content</text><text x="14" y="86" class="tmeta">all good</text></g><g transform="translate(848 578)"><rect width="150" height="104" rx="14" fill="#FFFFFF" stroke="#34A853" stroke-width="3"/><rect x="0" y="0" width="150" height="30" rx="14" fill="#34A853" opacity="0.16"/><rect x="0" y="16" width="150" height="14" fill="#34A853" opacity="0.16"/><circle cx="18" cy="15" r="6" fill="#34A853"/><text x="30" y="20" class="tname">Ivy #6</text><text x="14" y="60" class="tmood">Thriving</text><text x="14" y="86" class="tmeta">all good</text></g><g transform="translate(1010 578)"><rect width="150" height="104" rx="14" fill="#FFFFFF" stroke="#F5A623" stroke-width="3"/><rect x="0" y="0" width="150" height="30" rx="14" fill="#F5A623" opacity="0.16"/><rect x="0" y="16" width="150" height="14" fill="#F5A623" opacity="0.16"/><circle cx="18" cy="15" r="6" fill="#F5A623"/><text x="30" y="20" class="tname">Mint #7</text><text x="14" y="60" class="tmood">Thirsty</text><text x="14" y="86" class="tmeta">a drink soon?</text></g><g transform="translate(1172 578)"><rect width="150" height="104" rx="14" fill="#FFFFFF" stroke="#8BD24F" stroke-width="3"/><rect x="0" y="0" width="150" height="30" rx="14" fill="#8BD24F" opacity="0.16"/><rect x="0" y="16" width="150" height="14" fill="#8BD24F" opacity="0.16"/><circle cx="18" cy="15" r="6" fill="#8BD24F"/><text x="30" y="20" class="tname">Sage #8</text><text x="14" y="60" class="tmood">Content</text><text x="14" y="86" class="tmeta">all good</text></g><g transform="translate(38 694)"><rect width="150" height="104" rx="14" fill="#FFFFFF" stroke="#34A853" stroke-width="3"/><rect x="0" y="0" width="150" height="30" rx="14" fill="#34A853" opacity="0.16"/><rect x="0" y="16" width="150" height="14" fill="#34A853" opacity="0.16"/><circle cx="18" cy="15" r="6" fill="#34A853"/><text x="30" y="20" class="tname">Fig #9</text><text x="14" y="60" class="tmood">Thriving</text><text x="14" y="86" class="tmeta">all good</text></g><g transform="translate(200 694)"><rect width="150" height="104" rx="14" fill="#FFFFFF" stroke="#8BD24F" stroke-width="3"/><rect x="0" y="0" width="150" height="30" rx="14" fill="#8BD24F" opacity="0.16"/><rect x="0" y="16" width="150" height="14" fill="#8BD24F" opacity="0.16"/><circle cx="18" cy="15" r="6" fill="#8BD24F"/><text x="30" y="20" class="tname">Palm #10</text><text x="14" y="60" class="tmood">Content</text><text x="14" y="86" class="tmeta">all good</text></g><g transform="translate(362 694)"><rect width="150" height="104" rx="14" fill="#FFFFFF" stroke="#E8703A" stroke-width="3"/><rect x="0" y="0" width="150" height="30" rx="14" fill="#E8703A" opacity="0.16"/><rect x="0" y="16" width="150" height="14" fill="#E8703A" opacity="0.16"/><circle cx="18" cy="15" r="6" fill="#E8703A"/><text x="30" y="20" class="tname">Cactus #11</text><text x="14" y="60" class="tmood">Parched</text><text x="14" y="86" class="tmeta">water me today</text></g><g transform="translate(524 694)"><rect width="150" height="104" rx="14" fill="#FFFFFF" stroke="#34A853" stroke-width="3"/><rect x="0" y="0" width="150" height="30" rx="14" fill="#34A853" opacity="0.16"/><rect x="0" y="16" width="150" height="14" fill="#34A853" opacity="0.16"/><circle cx="18" cy="15" r="6" fill="#34A853"/><text x="30" y="20" class="tname">Orchid #12</text><text x="14" y="60" class="tmood">Thriving</text><text x="14" y="86" class="tmeta">all good</text></g><g transform="translate(686 694)"><rect width="150" height="104" rx="14" fill="#FFFFFF" stroke="#8BD24F" stroke-width="3"/><rect x="0" y="0" width="150" height="30" rx="14" fill="#8BD24F" opacity="0.16"/><rect x="0" y="16" width="150" height="14" fill="#8BD24F" opacity="0.16"/><circle cx="18" cy="15" r="6" fill="#8BD24F"/><text x="30" y="20" class="tname">Jade #13</text><text x="14" y="60" class="tmood">Content</text><text x="14" y="86" class="tmeta">all good</text></g><g transform="translate(848 694)"><rect width="150" height="104" rx="14" fill="#FFFFFF" stroke="#34A853" stroke-width="3"/><rect x="0" y="0" width="150" height="30" rx="14" fill="#34A853" opacity="0.16"/><rect x="0" y="16" width="150" height="14" fill="#34A853" opacity="0.16"/><circle cx="18" cy="15" r="6" fill="#34A853"/><text x="30" y="20" class="tname">Thyme #14</text><text x="14" y="60" class="tmood">Thriving</text><text x="14" y="86" class="tmeta">all good</text></g><g transform="translate(1010 694)"><rect width="150" height="104" rx="14" fill="#FFFFFF" stroke="#8BD24F" stroke-width="3"/><rect x="0" y="0" width="150" height="30" rx="14" fill="#8BD24F" opacity="0.16"/><rect x="0" y="16" width="150" height="14" fill="#8BD24F" opacity="0.16"/><circle cx="18" cy="15" r="6" fill="#8BD24F"/><text x="30" y="20" class="tname">Lily #15</text><text x="14" y="60" class="tmood">Content</text><text x="14" y="86" class="tmeta">all good</text></g><g transform="translate(1172 694)"><rect width="150" height="104" rx="14" fill="#FFFFFF" stroke="#17B6C4" stroke-width="3"/><rect x="0" y="0" width="150" height="30" rx="14" fill="#17B6C4" opacity="0.16"/><rect x="0" y="16" width="150" height="14" fill="#17B6C4" opacity="0.16"/><circle cx="18" cy="15" r="6" fill="#17B6C4"/><text x="30" y="20" class="tname">Rubber #16</text><text x="14" y="60" class="tmood">Refreshed</text><text x="14" y="86" class="tmeta">just watered</text></g><g transform="translate(38 810)"><rect width="150" height="104" rx="14" fill="#FFFFFF" stroke="#34A853" stroke-width="3"/><rect x="0" y="0" width="150" height="30" rx="14" fill="#34A853" opacity="0.16"/><rect x="0" y="16" width="150" height="14" fill="#34A853" opacity="0.16"/><circle cx="18" cy="15" r="6" fill="#34A853"/><text x="30" y="20" class="tname">Snake #17</text><text x="14" y="60" class="tmood">Thriving</text><text x="14" y="86" class="tmeta">all good</text></g><g transform="translate(200 810)"><rect width="150" height="104" rx="14" fill="#FFFFFF" stroke="#8BD24F" stroke-width="3"/><rect x="0" y="0" width="150" height="30" rx="14" fill="#8BD24F" opacity="0.16"/><rect x="0" y="16" width="150" height="14" fill="#8BD24F" opacity="0.16"/><circle cx="18" cy="15" r="6" fill="#8BD24F"/><text x="30" y="20" class="tname">ZZ #18</text><text x="14" y="60" class="tmood">Content</text><text x="14" y="86" class="tmeta">all good</text></g><g transform="translate(362 810)"><rect width="150" height="104" rx="14" fill="#FFFFFF" stroke="#E0483D" stroke-width="3"/><rect x="0" y="0" width="150" height="30" rx="14" fill="#E0483D" opacity="0.16"/><rect x="0" y="16" width="150" height="14" fill="#E0483D" opacity="0.16"/><circle cx="18" cy="15" r="6" fill="#E0483D"/><text x="30" y="20" class="tname">Spider #19</text><text x="14" y="60" class="tmood">Faint</text><text x="14" y="86" class="tmeta">water me now</text></g><g transform="translate(524 810)"><rect width="150" height="104" rx="14" fill="#FFFFFF" stroke="#8BD24F" stroke-width="3"/><rect x="0" y="0" width="150" height="30" rx="14" fill="#8BD24F" opacity="0.16"/><rect x="0" y="16" width="150" height="14" fill="#8BD24F" opacity="0.16"/><circle cx="18" cy="15" r="6" fill="#8BD24F"/><text x="30" y="20" class="tname">Olive #20</text><text x="14" y="60" class="tmood">Content</text><text x="14" y="86" class="tmeta">all good</text></g><g transform="translate(686 810)"><rect width="150" height="104" rx="14" fill="#FFFFFF" stroke="#34A853" stroke-width="3"/><rect x="0" y="0" width="150" height="30" rx="14" fill="#34A853" opacity="0.16"/><rect x="0" y="16" width="150" height="14" fill="#34A853" opacity="0.16"/><circle cx="18" cy="15" r="6" fill="#34A853"/><text x="30" y="20" class="tname">Bay #21</text><text x="14" y="60" class="tmood">Thriving</text><text x="14" y="86" class="tmeta">all good</text></g><g transform="translate(848 810)"><rect width="150" height="104" rx="14" fill="#FFFFFF" stroke="#8BD24F" stroke-width="3"/><rect x="0" y="0" width="150" height="30" rx="14" fill="#8BD24F" opacity="0.16"/><rect x="0" y="16" width="150" height="14" fill="#8BD24F" opacity="0.16"/><circle cx="18" cy="15" r="6" fill="#8BD24F"/><text x="30" y="20" class="tname">Chard #22</text><text x="14" y="60" class="tmood">Content</text><text x="14" y="86" class="tmeta">all good</text></g><g transform="translate(1010 810)"><rect width="150" height="104" rx="14" fill="#FFFFFF" stroke="#F5A623" stroke-width="3"/><rect x="0" y="0" width="150" height="30" rx="14" fill="#F5A623" opacity="0.16"/><rect x="0" y="16" width="150" height="14" fill="#F5A623" opacity="0.16"/><circle cx="18" cy="15" r="6" fill="#F5A623"/><text x="30" y="20" class="tname">Yucca #23</text><text x="14" y="60" class="tmood">Thirsty</text><text x="14" y="86" class="tmeta">a drink soon?</text></g><g transform="translate(1172 810)"><rect width="150" height="104" rx="14" fill="#FFFFFF" stroke="#34A853" stroke-width="3"/><rect x="0" y="0" width="150" height="30" rx="14" fill="#34A853" opacity="0.16"/><rect x="0" y="16" width="150" height="14" fill="#34A853" opacity="0.16"/><circle cx="18" cy="15" r="6" fill="#34A853"/><text x="30" y="20" class="tname">Calla #24</text><text x="14" y="60" class="tmood">Thriving</text><text x="14" y="86" class="tmeta">all good</text></g><text x="38" y="954" class="pin">Identity never travels by color (rule 3) — so at scale, colour is free to mean one thing: state. That is the charter paying off.</text></svg>
