<svg viewBox="0 0 1360 800" xmlns="http://www.w3.org/2000/svg"><style>
.h1{font-family:'Baloo 2',sans-serif;font-weight:800;font-size:40px;fill:#1E2A18}
.h2{font-family:'Hanken Grotesk',sans-serif;font-size:18px;fill:#6F7E62}
.eyebrow{font-family:'JetBrains Mono',monospace;font-size:14px;font-weight:600;fill:#6F7E62;letter-spacing:2px}
.colcap{font-family:'Baloo 2',sans-serif;font-weight:700;font-size:22px;fill:#1E2A18}
.colsub{font-family:'Hanken Grotesk',sans-serif;font-size:14px;fill:#6F7E62}
.name{font-family:'Baloo 2',sans-serif;font-weight:700;font-size:24px;fill:#1E2A18}
.num{font-family:'JetBrains Mono',monospace;font-size:15px;fill:#6F7E62}
.meta{font-family:'Hanken Grotesk',sans-serif;font-size:14px;fill:#6F7E62}
.chip{font-family:'Hanken Grotesk',sans-serif;font-size:13px;fill:#3C4A34}
.mood{font-family:'Baloo 2',sans-serif;font-weight:800;font-size:30px;fill:#1E2A18}
.bandtag{font-family:'JetBrains Mono',monospace;font-size:12px;fill:#8A9880}
.say{font-family:'Hanken Grotesk',sans-serif;font-size:17px;fill:#2C3A24}
.wlabel{font-family:'JetBrains Mono',monospace;font-size:11px;font-weight:600;fill:#8A9880;letter-spacing:1.5px}
.wval{font-family:'Hanken Grotesk',sans-serif;font-size:16px;fill:#1E2A18}
.foot{font-family:'Hanken Grotesk',sans-serif;font-size:14px;fill:#6F7E62}
.tiny{font-family:'Hanken Grotesk',sans-serif;font-size:11px;fill:#9A8480}
.today-title{font-family:'Baloo 2',sans-serif;font-weight:700;font-size:22px;fill:#1E2A18}
.rawbig{font-family:'Baloo 2',sans-serif;font-weight:800;font-size:72px;fill:#1E2A18}
.rawlab{font-family:'JetBrains Mono',monospace;font-size:13px;font-weight:600;fill:#8A9880;letter-spacing:2px}
.today-band{font-family:'Baloo 2',sans-serif;font-weight:700;font-size:24px;fill:#3C4A34}
.idx{font-family:'Hanken Grotesk',sans-serif;font-size:13px;fill:#9A8480}
.pin{font-family:'Hanken Grotesk',sans-serif;font-size:13px;font-style:italic;fill:#6F7E62}
.gname{font-family:'Baloo 2',sans-serif;font-weight:700;font-size:19px;fill:#1E2A18}
.gmeta{font-family:'Hanken Grotesk',sans-serif;font-size:13px;fill:#6F7E62}
.gmood{font-family:'Baloo 2',sans-serif;font-weight:800;font-size:22px;fill:#1E2A18}
.gsay{font-family:'Hanken Grotesk',sans-serif;font-size:15px;fill:#2C3A24}
.graw{font-family:'Baloo 2',sans-serif;font-weight:800;font-size:44px;fill:#1E2A18}
.grawlab{font-family:'JetBrains Mono',monospace;font-size:11px;font-weight:600;fill:#8A9880;letter-spacing:1.5px}
.tname{font-family:'Baloo 2',sans-serif;font-weight:700;font-size:13px;fill:#1E2A18}
.tmood{font-family:'Baloo 2',sans-serif;font-weight:800;font-size:20px;fill:#1E2A18}
.tmeta{font-family:'Hanken Grotesk',sans-serif;font-size:12px;fill:#6F7E62}
.traw{font-family:'Baloo 2',sans-serif;font-weight:800;font-size:28px;fill:#1E2A18}
.tband{font-family:'Hanken Grotesk',sans-serif;font-size:13px;fill:#6F7E62}
</style><rect width="1360" height="800" fill="#EEF4E6"/><text x="56" y="66" class="h1">The Home card — today vs. proposed</text><text x="56" y="98" class="h2">One plant, first-run (n=1). The proposed card is built to the #875 contract and the color-roles charter.</text><text x="128" y="150" class="colcap">Today</text><text x="128" y="172" class="colsub">a data readout</text><text x="512" y="150" class="colcap">Proposed</text><text x="512" y="172" class="colsub">a plant that speaks · mood-framed · identity-rich</text><text x="936" y="150" class="colcap">Proposed · first-run</text><text x="936" y="172" class="colsub">complete even with nothing filled in yet (ADR-0028)</text><g transform="translate(56 190)"><rect x="0" y="0" width="400" height="560" rx="24" fill="#FFFFFF" stroke="#E3E9D8" stroke-width="1.5"/><text x="28" y="58" class="today-title">Monstera #3</text><text x="28" y="84" class="meta">soil moisture</text><text x="200" y="210" class="rawbig" text-anchor="middle">2418</text><text x="200" y="240" class="rawlab" text-anchor="middle">RAW READING</text><rect x="34" y="288" width="44" height="26" rx="6" fill="#0E7A86" opacity="0.28"/><rect x="82" y="288" width="44" height="26" rx="6" fill="#17B6C4" opacity="0.28"/><rect x="130" y="288" width="44" height="26" rx="6" fill="#34A853" opacity="0.28"/><rect x="178" y="288" width="44" height="26" rx="6" fill="#8BD24F" opacity="1"/><rect x="226" y="288" width="44" height="26" rx="6" fill="#F5A623" opacity="0.28"/><rect x="274" y="288" width="44" height="26" rx="6" fill="#E8703A" opacity="0.28"/><rect x="322" y="288" width="44" height="26" rx="6" fill="#E0483D" opacity="0.28"/><text x="200" y="352" class="today-band" text-anchor="middle">Ideal</text><text x="200" y="392" class="idx" text-anchor="middle">62% index (labelled)</text></g><g transform="translate(464 190)"><rect x="0" y="0" width="400" height="560" rx="24" fill="#FFFFFF" stroke="#8BD24F" stroke-width="3"/><rect x="28" y="28" width="120" height="120" rx="16" fill="#F7FAF2" stroke="#E3E9D8"/><g><path d="M84 62 C66 52,58 72,82 84" fill="#5FA23C"/><path d="M92 62 C110 52,118 72,94 84" fill="#5FA23C"/><path d="M88 52 C78 62,80 82,88 86 C96 82,98 62,88 52 Z" fill="#6FB446"/><rect x="85" y="78" width="6" height="18" rx="2" fill="#4F7D34"/><path d="M66 88 L110 88 L104 118 Q88 122 72 118 Z" fill="#C9A488"/><rect x="63" y="84" width="50" height="8" rx="3" fill="#B98F6F"/></g><text x="168" y="60" class="name">Monstera</text><text x="168" y="86" class="num">#3</text><text x="168" y="112" class="meta">12″ terracotta</text><rect x="168" y="124" width="145" height="24" rx="12" fill="#EEF4E6" stroke="#E3E9D8"/><circle cx="181" cy="136" r="3" fill="#6F7E62"/><text x="190" y="140" class="chip">Kitchen windowsill</text><rect x="28" y="176" width="344" height="150" rx="16" fill="#8BD24F" opacity="0.08"/><circle cx="52" cy="214" r="11" fill="#8BD24F"/><text x="74" y="224" class="mood">Content</text><text x="360" y="222" class="bandtag" text-anchor="end">band · Ideal</text><text x="52" y="262" class="say">I’m content — plenty to drink.</text><text x="52" y="290" class="say">Check back with me in a few days.</text><line x1="28" y1="356" x2="372" y2="356" stroke="#E3E9D8"/><text x="52" y="392" class="wlabel">LAST WATERED</text><path d="M40 413 C46 419,45 425,40 425 C35 425,34 419,40 413 Z" fill="#17B6C4"/><text x="52" y="426" class="wval">2 days ago</text><text x="52" y="462" class="wlabel">NEXT CHECK</text><circle cx="40" cy="490" r="5" fill="#7C5CFF"/><text x="52" y="496" class="wval">in about 4 days</text><text x="360" y="392" class="wlabel" text-anchor="end">DETECTED</text><text x="360" y="462" class="wlabel" text-anchor="end">FORECAST</text><line x1="28" y1="516" x2="372" y2="516" stroke="#E3E9D8"/><text x="28" y="544" class="foot">See the raw numbers on the Workbench →</text></g><g transform="translate(872 190)"><rect x="0" y="0" width="400" height="560" rx="24" fill="#FFFFFF" stroke="#34A853" stroke-width="3"/><rect x="28" y="28" width="120" height="120" rx="16" fill="#F7FAF2" stroke="#E3E9D8"/><g opacity="0.55"><path d="M88 94 C85 84,74 83,75 94 C68 90,66 99,74 101 L102 101 C110 99,108 90,101 94 C102 83,91 84,88 94 Z" fill="none" stroke="#9A8480" stroke-width="1.6"/></g><text x="88" y="132" class="tiny" text-anchor="middle">no photo yet</text><text x="168" y="60" class="name">New plant</text><text x="168" y="86" class="num">#8</text><text x="168" y="112" class="meta">pot not set yet</text><rect x="168" y="124" width="131" height="24" rx="12" fill="#EEF4E6" stroke="#E3E9D8"/><circle cx="181" cy="136" r="3" fill="#6F7E62"/><text x="190" y="140" class="chip">Location not set</text><rect x="28" y="176" width="344" height="150" rx="16" fill="#34A853" opacity="0.08"/><circle cx="52" cy="214" r="11" fill="#34A853"/><text x="74" y="224" class="mood">Thriving</text><text x="360" y="222" class="bandtag" text-anchor="end">band · Moist</text><text x="52" y="262" class="say">Hi! I’m settling in.</text><text x="52" y="290" class="say">Watching my soil — more soon.</text><line x1="28" y1="356" x2="372" y2="356" stroke="#E3E9D8"/><text x="52" y="392" class="wlabel">LAST WATERED</text><path d="M40 413 C46 419,45 425,40 425 C35 425,34 419,40 413 Z" fill="#17B6C4"/><text x="52" y="426" class="wval">— not seen yet</text><text x="52" y="462" class="wlabel">NEXT CHECK</text><circle cx="40" cy="490" r="5" fill="#7C5CFF"/><text x="52" y="496" class="wval">— learning my rhythm</text><text x="360" y="392" class="wlabel" text-anchor="end">DETECTED</text><text x="360" y="462" class="wlabel" text-anchor="end">FORECAST</text><line x1="28" y1="516" x2="372" y2="516" stroke="#E3E9D8"/><text x="28" y="544" class="foot">See the raw numbers on the Workbench →</text></g><text x="56" y="782" class="pin">Water story (last-watered detection + next-check forecast) lands in 0.8.0; shown here as design intent. Raw numbers live on the Workbench, never the card.</text></svg>
