<svg viewBox="0 0 1360 978" xmlns="http://www.w3.org/2000/svg"><style>
.h1{font-family:'Baloo 2',sans-serif;font-weight:800;font-size:40px;fill:#1E2A18}
.h2{font-family:'Hanken Grotesk',sans-serif;font-size:18px;fill:#6F7E62}
.colcap{font-family:'Baloo 2',sans-serif;font-weight:700;font-size:22px;fill:#1E2A18}
.colsub{font-family:'Hanken Grotesk',sans-serif;font-size:14px;fill:#6F7E62}
.name{font-family:'Baloo 2',sans-serif;font-weight:700;font-size:24px;fill:#1E2A18}
.num{font-family:'JetBrains Mono',monospace;font-size:15px;fill:#6F7E62}
.meta{font-family:'Hanken Grotesk',sans-serif;font-size:14px;fill:#6F7E62}
.chip{font-family:'Hanken Grotesk',sans-serif;font-size:13px;fill:#3C4A34}
.mood{font-family:'Baloo 2',sans-serif;font-weight:800;font-size:30px;fill:#1E2A18}
.bandtag{font-family:'JetBrains Mono',monospace;font-size:12px;fill:#8A9880}
.say{font-family:'Hanken Grotesk',sans-serif;font-size:17px;fill:#2C3A24}
.wlabel{font-family:'JetBrains Mono',monospace;font-size:11px;font-weight:600;fill:#8A9880;letter-spacing:1.5px}
.wval{font-family:'Hanken Grotesk',sans-serif;font-size:16px;fill:#1E2A18}
.foot{font-family:'Hanken Grotesk',sans-serif;font-size:14px;fill:#6F7E62}
.tiny{font-family:'Hanken Grotesk',sans-serif;font-size:11px;fill:#9A8480}
.td-name{font-family:'Baloo 2',sans-serif;font-weight:700;font-size:19px;fill:#1E2A18}
.td-type{font-family:'JetBrains Mono',monospace;font-size:13px;fill:#9A8480;font-weight:400}
.td-meta{font-family:'JetBrains Mono',monospace;font-size:13px;fill:#9A8480}
.td-raw{font-family:'Baloo 2',sans-serif;font-weight:800;font-size:52px;fill:#1E2A18}
.td-rawu{font-family:'JetBrains Mono',monospace;font-size:15px;fill:#9A8480}
.td-pill{font-family:'Hanken Grotesk',sans-serif;font-weight:600;font-size:14px;fill:#FFFFFF}
.td-slab{font-family:'JetBrains Mono',monospace;font-size:14px;fill:#6F7E62}
.td-sval{font-family:'JetBrains Mono',monospace;font-size:14px;fill:#1E2A18}
.td-src{font-family:'JetBrains Mono',monospace;font-size:12px;fill:#9A8480}
.gname{font-family:'Baloo 2',sans-serif;font-weight:700;font-size:19px;fill:#1E2A18}
.gmeta{font-family:'Hanken Grotesk',sans-serif;font-size:13px;fill:#6F7E62}
.gmeta2{font-family:'JetBrains Mono',monospace;font-size:12px;fill:#9A8480}
.gmood{font-family:'Baloo 2',sans-serif;font-weight:800;font-size:22px;fill:#1E2A18}
.gsay{font-family:'Hanken Grotesk',sans-serif;font-size:15px;fill:#2C3A24}
.graw{font-family:'Baloo 2',sans-serif;font-weight:800;font-size:40px;fill:#1E2A18}
.gpill{font-family:'Hanken Grotesk',sans-serif;font-weight:600;font-size:13px;fill:#FFFFFF}
.tname{font-family:'Baloo 2',sans-serif;font-weight:700;font-size:13px;fill:#1E2A18}
.tmood{font-family:'Baloo 2',sans-serif;font-weight:800;font-size:20px;fill:#1E2A18}
.tmeta{font-family:'Hanken Grotesk',sans-serif;font-size:12px;fill:#6F7E62}
.traw{font-family:'Baloo 2',sans-serif;font-weight:800;font-size:26px;fill:#1E2A18}
.tband{font-family:'JetBrains Mono',monospace;font-size:11px;fill:#6F7E62}
.pin{font-family:'Hanken Grotesk',sans-serif;font-size:13px;font-style:italic;fill:#6F7E62}
.callout{font-family:'Hanken Grotesk',sans-serif;font-size:14px;font-weight:600;fill:#E0483D}
</style><rect width="1360" height="978" fill="#EEF4E6"/><text x="56" y="62" class="h1">Twenty-four plants — arbitrary colour vs. state</text><text x="56" y="94" class="h2">Illustrative scale. Today every card wears an assigned identity colour — pretty noise. Proposed, colour can only mean state, so the plants that need water pop.</text><text x="38" y="156" class="colcap">Today · 24 assigned colours, none of them state</text><g transform="translate(38 170)"><defs><clipPath id="c6"><rect width="150" height="104" rx="14"/></clipPath></defs><g clip-path="url(#c6)"><rect width="150" height="104" fill="#7C5CFF"/><rect x="8" width="142" height="104" fill="#FFFFFF"/></g><rect width="150" height="104" rx="14" fill="none" stroke="#E3E9D8" stroke-width="1.5"/><text x="22" y="26" class="tname">Monstera</text><text x="22" y="60" class="traw">2,418</text><text x="22" y="86" class="tband">Ideal · content</text></g><g transform="translate(200 170)"><defs><clipPath id="c7"><rect width="150" height="104" rx="14"/></clipPath></defs><g clip-path="url(#c7)"><rect width="150" height="104" fill="#17B6C4"/><rect x="8" width="142" height="104" fill="#FFFFFF"/></g><rect width="150" height="104" rx="14" fill="none" stroke="#E3E9D8" stroke-width="1.5"/><text x="22" y="26" class="tname">Fern</text><text x="22" y="60" class="traw">2,205</text><text x="22" y="86" class="tband">Moist · thriving</text></g><g transform="translate(362 170)"><defs><clipPath id="c8"><rect width="150" height="104" rx="14"/></clipPath></defs><g clip-path="url(#c8)"><rect width="150" height="104" fill="#E0483D"/><rect x="8" width="142" height="104" fill="#FFFFFF"/></g><rect width="150" height="104" rx="14" fill="none" stroke="#E3E9D8" stroke-width="1.5"/><text x="22" y="26" class="tname">Basil</text><text x="22" y="60" class="traw">2,380</text><text x="22" y="86" class="tband">Ideal · content</text></g><g transform="translate(524 170)"><defs><clipPath id="c9"><rect width="150" height="104" rx="14"/></clipPath></defs><g clip-path="url(#c9)"><rect width="150" height="104" fill="#F5A623"/><rect x="8" width="142" height="104" fill="#FFFFFF"/></g><rect width="150" height="104" rx="14" fill="none" stroke="#E3E9D8" stroke-width="1.5"/><text x="22" y="26" class="tname">Aloe</text><text x="22" y="60" class="traw">2,150</text><text x="22" y="86" class="tband">Moist · thriving</text></g><g transform="translate(686 170)"><defs><clipPath id="c10"><rect width="150" height="104" rx="14"/></clipPath></defs><g clip-path="url(#c10)"><rect width="150" height="104" fill="#34A853"/><rect x="8" width="142" height="104" fill="#FFFFFF"/></g><rect width="150" height="104" rx="14" fill="none" stroke="#E3E9D8" stroke-width="1.5"/><text x="22" y="26" class="tname">Pothos</text><text x="22" y="60" class="traw">2,460</text><text x="22" y="86" class="tband">Ideal · content</text></g><g transform="translate(848 170)"><defs><clipPath id="c11"><rect width="150" height="104" rx="14"/></clipPath></defs><g clip-path="url(#c11)"><rect width="150" height="104" fill="#8BD24F"/><rect x="8" width="142" height="104" fill="#FFFFFF"/></g><rect width="150" height="104" rx="14" fill="none" stroke="#E3E9D8" stroke-width="1.5"/><text x="22" y="26" class="tname">Ivy</text><text x="22" y="60" class="traw">2,100</text><text x="22" y="86" class="tband">Moist · thriving</text></g><g transform="translate(1010 170)"><defs><clipPath id="c12"><rect width="150" height="104" rx="14"/></clipPath></defs><g clip-path="url(#c12)"><rect width="150" height="104" fill="#E8703A"/><rect x="8" width="142" height="104" fill="#FFFFFF"/></g><rect width="150" height="104" rx="14" fill="none" stroke="#E3E9D8" stroke-width="1.5"/><text x="22" y="26" class="tname">Mint</text><text x="22" y="60" class="traw">3,120</text><text x="22" y="86" class="tband">Drying · thirsty</text></g><g transform="translate(1172 170)"><defs><clipPath id="c13"><rect width="150" height="104" rx="14"/></clipPath></defs><g clip-path="url(#c13)"><rect width="150" height="104" fill="#0E7A86"/><rect x="8" width="142" height="104" fill="#FFFFFF"/></g><rect width="150" height="104" rx="14" fill="none" stroke="#E3E9D8" stroke-width="1.5"/><text x="22" y="26" class="tname">Sage</text><text x="22" y="60" class="traw">2,340</text><text x="22" y="86" class="tband">Ideal · content</text></g><g transform="translate(38 286)"><defs><clipPath id="c14"><rect width="150" height="104" rx="14"/></clipPath></defs><g clip-path="url(#c14)"><rect width="150" height="104" fill="#9A8480"/><rect x="8" width="142" height="104" fill="#FFFFFF"/></g><rect width="150" height="104" rx="14" fill="none" stroke="#E3E9D8" stroke-width="1.5"/><text x="22" y="26" class="tname">Fig</text><text x="22" y="60" class="traw">2,210</text><text x="22" y="86" class="tband">Moist · thriving</text></g><g transform="translate(200 286)"><defs><clipPath id="c15"><rect width="150" height="104" rx="14"/></clipPath></defs><g clip-path="url(#c15)"><rect width="150" height="104" fill="#6FB446"/><rect x="8" width="142" height="104" fill="#FFFFFF"/></g><rect width="150" height="104" rx="14" fill="none" stroke="#E3E9D8" stroke-width="1.5"/><text x="22" y="26" class="tname">Palm</text><text x="22" y="60" class="traw">2,400</text><text x="22" y="86" class="tband">Ideal · content</text></g><g transform="translate(362 286)"><defs><clipPath id="c16"><rect width="150" height="104" rx="14"/></clipPath></defs><g clip-path="url(#c16)"><rect width="150" height="104" fill="#7C5CFF"/><rect x="8" width="142" height="104" fill="#FFFFFF"/></g><rect width="150" height="104" rx="14" fill="none" stroke="#E3E9D8" stroke-width="1.5"/><text x="22" y="26" class="tname">Cactus</text><text x="22" y="60" class="traw">3,450</text><text x="22" y="86" class="tband">Dry · parched</text></g><g transform="translate(524 286)"><defs><clipPath id="c17"><rect width="150" height="104" rx="14"/></clipPath></defs><g clip-path="url(#c17)"><rect width="150" height="104" fill="#17B6C4"/><rect x="8" width="142" height="104" fill="#FFFFFF"/></g><rect width="150" height="104" rx="14" fill="none" stroke="#E3E9D8" stroke-width="1.5"/><text x="22" y="26" class="tname">Orchid</text><text x="22" y="60" class="traw">2,260</text><text x="22" y="86" class="tband">Moist · thriving</text></g><g transform="translate(686 286)"><defs><clipPath id="c18"><rect width="150" height="104" rx="14"/></clipPath></defs><g clip-path="url(#c18)"><rect width="150" height="104" fill="#E0483D"/><rect x="8" width="142" height="104" fill="#FFFFFF"/></g><rect width="150" height="104" rx="14" fill="none" stroke="#E3E9D8" stroke-width="1.5"/><text x="22" y="26" class="tname">Jade</text><text x="22" y="60" class="traw">2,420</text><text x="22" y="86" class="tband">Ideal · content</text></g><g transform="translate(848 286)"><defs><clipPath id="c19"><rect width="150" height="104" rx="14"/></clipPath></defs><g clip-path="url(#c19)"><rect width="150" height="104" fill="#F5A623"/><rect x="8" width="142" height="104" fill="#FFFFFF"/></g><rect width="150" height="104" rx="14" fill="none" stroke="#E3E9D8" stroke-width="1.5"/><text x="22" y="26" class="tname">Thyme</text><text x="22" y="60" class="traw">2,180</text><text x="22" y="86" class="tband">Moist · thriving</text></g><g transform="translate(1010 286)"><defs><clipPath id="c20"><rect width="150" height="104" rx="14"/></clipPath></defs><g clip-path="url(#c20)"><rect width="150" height="104" fill="#34A853"/><rect x="8" width="142" height="104" fill="#FFFFFF"/></g><rect width="150" height="104" rx="14" fill="none" stroke="#E3E9D8" stroke-width="1.5"/><text x="22" y="26" class="tname">Lily</text><text x="22" y="60" class="traw">2,440</text><text x="22" y="86" class="tband">Ideal · content</text></g><g transform="translate(1172 286)"><defs><clipPath id="c21"><rect width="150" height="104" rx="14"/></clipPath></defs><g clip-path="url(#c21)"><rect width="150" height="104" fill="#8BD24F"/><rect x="8" width="142" height="104" fill="#FFFFFF"/></g><rect width="150" height="104" rx="14" fill="none" stroke="#E3E9D8" stroke-width="1.5"/><text x="22" y="26" class="tname">Rubber</text><text x="22" y="60" class="traw">1,760</text><text x="22" y="86" class="tband">Wet · refreshed</text></g><g transform="translate(38 402)"><defs><clipPath id="c22"><rect width="150" height="104" rx="14"/></clipPath></defs><g clip-path="url(#c22)"><rect width="150" height="104" fill="#E8703A"/><rect x="8" width="142" height="104" fill="#FFFFFF"/></g><rect width="150" height="104" rx="14" fill="none" stroke="#E3E9D8" stroke-width="1.5"/><text x="22" y="26" class="tname">Snake</text><text x="22" y="60" class="traw">2,200</text><text x="22" y="86" class="tband">Moist · thriving</text></g><g transform="translate(200 402)"><defs><clipPath id="c23"><rect width="150" height="104" rx="14"/></clipPath></defs><g clip-path="url(#c23)"><rect width="150" height="104" fill="#0E7A86"/><rect x="8" width="142" height="104" fill="#FFFFFF"/></g><rect width="150" height="104" rx="14" fill="none" stroke="#E3E9D8" stroke-width="1.5"/><text x="22" y="26" class="tname">ZZ</text><text x="22" y="60" class="traw">2,410</text><text x="22" y="86" class="tband">Ideal · content</text></g><g transform="translate(362 402)"><defs><clipPath id="c24"><rect width="150" height="104" rx="14"/></clipPath></defs><g clip-path="url(#c24)"><rect width="150" height="104" fill="#9A8480"/><rect x="8" width="142" height="104" fill="#FFFFFF"/></g><rect width="150" height="104" rx="14" fill="none" stroke="#E3E9D8" stroke-width="1.5"/><text x="22" y="26" class="tname">Spider</text><text x="22" y="60" class="traw">3,600</text><text x="22" y="86" class="tband">Parched · faint</text></g><g transform="translate(524 402)"><defs><clipPath id="c25"><rect width="150" height="104" rx="14"/></clipPath></defs><g clip-path="url(#c25)"><rect width="150" height="104" fill="#6FB446"/><rect x="8" width="142" height="104" fill="#FFFFFF"/></g><rect width="150" height="104" rx="14" fill="none" stroke="#E3E9D8" stroke-width="1.5"/><text x="22" y="26" class="tname">Olive</text><text x="22" y="60" class="traw">2,390</text><text x="22" y="86" class="tband">Ideal · content</text></g><g transform="translate(686 402)"><defs><clipPath id="c26"><rect width="150" height="104" rx="14"/></clipPath></defs><g clip-path="url(#c26)"><rect width="150" height="104" fill="#7C5CFF"/><rect x="8" width="142" height="104" fill="#FFFFFF"/></g><rect width="150" height="104" rx="14" fill="none" stroke="#E3E9D8" stroke-width="1.5"/><text x="22" y="26" class="tname">Bay</text><text x="22" y="60" class="traw">2,190</text><text x="22" y="86" class="tband">Moist · thriving</text></g><g transform="translate(848 402)"><defs><clipPath id="c27"><rect width="150" height="104" rx="14"/></clipPath></defs><g clip-path="url(#c27)"><rect width="150" height="104" fill="#17B6C4"/><rect x="8" width="142" height="104" fill="#FFFFFF"/></g><rect width="150" height="104" rx="14" fill="none" stroke="#E3E9D8" stroke-width="1.5"/><text x="22" y="26" class="tname">Chard</text><text x="22" y="60" class="traw">2,430</text><text x="22" y="86" class="tband">Ideal · content</text></g><g transform="translate(1010 402)"><defs><clipPath id="c28"><rect width="150" height="104" rx="14"/></clipPath></defs><g clip-path="url(#c28)"><rect width="150" height="104" fill="#E0483D"/><rect x="8" width="142" height="104" fill="#FFFFFF"/></g><rect width="150" height="104" rx="14" fill="none" stroke="#E3E9D8" stroke-width="1.5"/><text x="22" y="26" class="tname">Yucca</text><text x="22" y="60" class="traw">3,090</text><text x="22" y="86" class="tband">Drying · thirsty</text></g><g transform="translate(1172 402)"><defs><clipPath id="c29"><rect width="150" height="104" rx="14"/></clipPath></defs><g clip-path="url(#c29)"><rect width="150" height="104" fill="#F5A623"/><rect x="8" width="142" height="104" fill="#FFFFFF"/></g><rect width="150" height="104" rx="14" fill="none" stroke="#E3E9D8" stroke-width="1.5"/><text x="22" y="26" class="tname">Calla</text><text x="22" y="60" class="traw">2,170</text><text x="22" y="86" class="tband">Moist · thriving</text></g><text x="38" y="564" class="colcap">Proposed · colour finds the plant that needs you</text><g transform="translate(38 578)"><rect width="150" height="104" rx="14" fill="#FFFFFF" stroke="#8BD24F" stroke-width="3"/><rect x="0" y="0" width="150" height="30" rx="14" fill="#8BD24F" opacity="0.16"/><rect x="0" y="16" width="150" height="14" fill="#8BD24F" opacity="0.16"/><circle cx="18" cy="15" r="6" fill="#8BD24F"/><text x="30" y="20" class="tname">Monstera</text><text x="14" y="60" class="tmood">Content</text><text x="14" y="86" class="tmeta">all good</text></g><g transform="translate(200 578)"><rect width="150" height="104" rx="14" fill="#FFFFFF" stroke="#34A853" stroke-width="3"/><rect x="0" y="0" width="150" height="30" rx="14" fill="#34A853" opacity="0.16"/><rect x="0" y="16" width="150" height="14" fill="#34A853" opacity="0.16"/><circle cx="18" cy="15" r="6" fill="#34A853"/><text x="30" y="20" class="tname">Fern</text><text x="14" y="60" class="tmood">Thriving</text><text x="14" y="86" class="tmeta">all good</text></g><g transform="translate(362 578)"><rect width="150" height="104" rx="14" fill="#FFFFFF" stroke="#8BD24F" stroke-width="3"/><rect x="0" y="0" width="150" height="30" rx="14" fill="#8BD24F" opacity="0.16"/><rect x="0" y="16" width="150" height="14" fill="#8BD24F" opacity="0.16"/><circle cx="18" cy="15" r="6" fill="#8BD24F"/><text x="30" y="20" class="tname">Basil</text><text x="14" y="60" class="tmood">Content</text><text x="14" y="86" class="tmeta">all good</text></g><g transform="translate(524 578)"><rect width="150" height="104" rx="14" fill="#FFFFFF" stroke="#34A853" stroke-width="3"/><rect x="0" y="0" width="150" height="30" rx="14" fill="#34A853" opacity="0.16"/><rect x="0" y="16" width="150" height="14" fill="#34A853" opacity="0.16"/><circle cx="18" cy="15" r="6" fill="#34A853"/><text x="30" y="20" class="tname">Aloe</text><text x="14" y="60" class="tmood">Thriving</text><text x="14" y="86" class="tmeta">all good</text></g><g transform="translate(686 578)"><rect width="150" height="104" rx="14" fill="#FFFFFF" stroke="#8BD24F" stroke-width="3"/><rect x="0" y="0" width="150" height="30" rx="14" fill="#8BD24F" opacity="0.16"/><rect x="0" y="16" width="150" height="14" fill="#8BD24F" opacity="0.16"/><circle cx="18" cy="15" r="6" fill="#8BD24F"/><text x="30" y="20" class="tname">Pothos</text><text x="14" y="60" class="tmood">Content</text><text x="14" y="86" class="tmeta">all good</text></g><g transform="translate(848 578)"><rect width="150" height="104" rx="14" fill="#FFFFFF" stroke="#34A853" stroke-width="3"/><rect x="0" y="0" width="150" height="30" rx="14" fill="#34A853" opacity="0.16"/><rect x="0" y="16" width="150" height="14" fill="#34A853" opacity="0.16"/><circle cx="18" cy="15" r="6" fill="#34A853"/><text x="30" y="20" class="tname">Ivy</text><text x="14" y="60" class="tmood">Thriving</text><text x="14" y="86" class="tmeta">all good</text></g><g transform="translate(1010 578)"><rect width="150" height="104" rx="14" fill="#FFFFFF" stroke="#F5A623" stroke-width="3"/><rect x="0" y="0" width="150" height="30" rx="14" fill="#F5A623" opacity="0.16"/><rect x="0" y="16" width="150" height="14" fill="#F5A623" opacity="0.16"/><circle cx="18" cy="15" r="6" fill="#F5A623"/><text x="30" y="20" class="tname">Mint</text><text x="14" y="60" class="tmood">Thirsty</text><text x="14" y="86" class="tmeta">a drink soon?</text></g><g transform="translate(1172 578)"><rect width="150" height="104" rx="14" fill="#FFFFFF" stroke="#8BD24F" stroke-width="3"/><rect x="0" y="0" width="150" height="30" rx="14" fill="#8BD24F" opacity="0.16"/><rect x="0" y="16" width="150" height="14" fill="#8BD24F" opacity="0.16"/><circle cx="18" cy="15" r="6" fill="#8BD24F"/><text x="30" y="20" class="tname">Sage</text><text x="14" y="60" class="tmood">Content</text><text x="14" y="86" class="tmeta">all good</text></g><g transform="translate(38 694)"><rect width="150" height="104" rx="14" fill="#FFFFFF" stroke="#34A853" stroke-width="3"/><rect x="0" y="0" width="150" height="30" rx="14" fill="#34A853" opacity="0.16"/><rect x="0" y="16" width="150" height="14" fill="#34A853" opacity="0.16"/><circle cx="18" cy="15" r="6" fill="#34A853"/><text x="30" y="20" class="tname">Fig</text><text x="14" y="60" class="tmood">Thriving</text><text x="14" y="86" class="tmeta">all good</text></g><g transform="translate(200 694)"><rect width="150" height="104" rx="14" fill="#FFFFFF" stroke="#8BD24F" stroke-width="3"/><rect x="0" y="0" width="150" height="30" rx="14" fill="#8BD24F" opacity="0.16"/><rect x="0" y="16" width="150" height="14" fill="#8BD24F" opacity="0.16"/><circle cx="18" cy="15" r="6" fill="#8BD24F"/><text x="30" y="20" class="tname">Palm</text><text x="14" y="60" class="tmood">Content</text><text x="14" y="86" class="tmeta">all good</text></g><g transform="translate(362 694)"><rect width="150" height="104" rx="14" fill="#FFFFFF" stroke="#E8703A" stroke-width="3"/><rect x="0" y="0" width="150" height="30" rx="14" fill="#E8703A" opacity="0.16"/><rect x="0" y="16" width="150" height="14" fill="#E8703A" opacity="0.16"/><circle cx="18" cy="15" r="6" fill="#E8703A"/><text x="30" y="20" class="tname">Cactus</text><text x="14" y="60" class="tmood">Parched</text><text x="14" y="86" class="tmeta">water me today</text></g><g transform="translate(524 694)"><rect width="150" height="104" rx="14" fill="#FFFFFF" stroke="#34A853" stroke-width="3"/><rect x="0" y="0" width="150" height="30" rx="14" fill="#34A853" opacity="0.16"/><rect x="0" y="16" width="150" height="14" fill="#34A853" opacity="0.16"/><circle cx="18" cy="15" r="6" fill="#34A853"/><text x="30" y="20" class="tname">Orchid</text><text x="14" y="60" class="tmood">Thriving</text><text x="14" y="86" class="tmeta">all good</text></g><g transform="translate(686 694)"><rect width="150" height="104" rx="14" fill="#FFFFFF" stroke="#8BD24F" stroke-width="3"/><rect x="0" y="0" width="150" height="30" rx="14" fill="#8BD24F" opacity="0.16"/><rect x="0" y="16" width="150" height="14" fill="#8BD24F" opacity="0.16"/><circle cx="18" cy="15" r="6" fill="#8BD24F"/><text x="30" y="20" class="tname">Jade</text><text x="14" y="60" class="tmood">Content</text><text x="14" y="86" class="tmeta">all good</text></g><g transform="translate(848 694)"><rect width="150" height="104" rx="14" fill="#FFFFFF" stroke="#34A853" stroke-width="3"/><rect x="0" y="0" width="150" height="30" rx="14" fill="#34A853" opacity="0.16"/><rect x="0" y="16" width="150" height="14" fill="#34A853" opacity="0.16"/><circle cx="18" cy="15" r="6" fill="#34A853"/><text x="30" y="20" class="tname">Thyme</text><text x="14" y="60" class="tmood">Thriving</text><text x="14" y="86" class="tmeta">all good</text></g><g transform="translate(1010 694)"><rect width="150" height="104" rx="14" fill="#FFFFFF" stroke="#8BD24F" stroke-width="3"/><rect x="0" y="0" width="150" height="30" rx="14" fill="#8BD24F" opacity="0.16"/><rect x="0" y="16" width="150" height="14" fill="#8BD24F" opacity="0.16"/><circle cx="18" cy="15" r="6" fill="#8BD24F"/><text x="30" y="20" class="tname">Lily</text><text x="14" y="60" class="tmood">Content</text><text x="14" y="86" class="tmeta">all good</text></g><g transform="translate(1172 694)"><rect width="150" height="104" rx="14" fill="#FFFFFF" stroke="#17B6C4" stroke-width="3"/><rect x="0" y="0" width="150" height="30" rx="14" fill="#17B6C4" opacity="0.16"/><rect x="0" y="16" width="150" height="14" fill="#17B6C4" opacity="0.16"/><circle cx="18" cy="15" r="6" fill="#17B6C4"/><text x="30" y="20" class="tname">Rubber</text><text x="14" y="60" class="tmood">Refreshed</text><text x="14" y="86" class="tmeta">just watered</text></g><g transform="translate(38 810)"><rect width="150" height="104" rx="14" fill="#FFFFFF" stroke="#34A853" stroke-width="3"/><rect x="0" y="0" width="150" height="30" rx="14" fill="#34A853" opacity="0.16"/><rect x="0" y="16" width="150" height="14" fill="#34A853" opacity="0.16"/><circle cx="18" cy="15" r="6" fill="#34A853"/><text x="30" y="20" class="tname">Snake</text><text x="14" y="60" class="tmood">Thriving</text><text x="14" y="86" class="tmeta">all good</text></g><g transform="translate(200 810)"><rect width="150" height="104" rx="14" fill="#FFFFFF" stroke="#8BD24F" stroke-width="3"/><rect x="0" y="0" width="150" height="30" rx="14" fill="#8BD24F" opacity="0.16"/><rect x="0" y="16" width="150" height="14" fill="#8BD24F" opacity="0.16"/><circle cx="18" cy="15" r="6" fill="#8BD24F"/><text x="30" y="20" class="tname">ZZ</text><text x="14" y="60" class="tmood">Content</text><text x="14" y="86" class="tmeta">all good</text></g><g transform="translate(362 810)"><rect width="150" height="104" rx="14" fill="#FFFFFF" stroke="#E0483D" stroke-width="3"/><rect x="0" y="0" width="150" height="30" rx="14" fill="#E0483D" opacity="0.16"/><rect x="0" y="16" width="150" height="14" fill="#E0483D" opacity="0.16"/><circle cx="18" cy="15" r="6" fill="#E0483D"/><text x="30" y="20" class="tname">Spider</text><text x="14" y="60" class="tmood">Faint</text><text x="14" y="86" class="tmeta">water me now</text></g><g transform="translate(524 810)"><rect width="150" height="104" rx="14" fill="#FFFFFF" stroke="#8BD24F" stroke-width="3"/><rect x="0" y="0" width="150" height="30" rx="14" fill="#8BD24F" opacity="0.16"/><rect x="0" y="16" width="150" height="14" fill="#8BD24F" opacity="0.16"/><circle cx="18" cy="15" r="6" fill="#8BD24F"/><text x="30" y="20" class="tname">Olive</text><text x="14" y="60" class="tmood">Content</text><text x="14" y="86" class="tmeta">all good</text></g><g transform="translate(686 810)"><rect width="150" height="104" rx="14" fill="#FFFFFF" stroke="#34A853" stroke-width="3"/><rect x="0" y="0" width="150" height="30" rx="14" fill="#34A853" opacity="0.16"/><rect x="0" y="16" width="150" height="14" fill="#34A853" opacity="0.16"/><circle cx="18" cy="15" r="6" fill="#34A853"/><text x="30" y="20" class="tname">Bay</text><text x="14" y="60" class="tmood">Thriving</text><text x="14" y="86" class="tmeta">all good</text></g><g transform="translate(848 810)"><rect width="150" height="104" rx="14" fill="#FFFFFF" stroke="#8BD24F" stroke-width="3"/><rect x="0" y="0" width="150" height="30" rx="14" fill="#8BD24F" opacity="0.16"/><rect x="0" y="16" width="150" height="14" fill="#8BD24F" opacity="0.16"/><circle cx="18" cy="15" r="6" fill="#8BD24F"/><text x="30" y="20" class="tname">Chard</text><text x="14" y="60" class="tmood">Content</text><text x="14" y="86" class="tmeta">all good</text></g><g transform="translate(1010 810)"><rect width="150" height="104" rx="14" fill="#FFFFFF" stroke="#F5A623" stroke-width="3"/><rect x="0" y="0" width="150" height="30" rx="14" fill="#F5A623" opacity="0.16"/><rect x="0" y="16" width="150" height="14" fill="#F5A623" opacity="0.16"/><circle cx="18" cy="15" r="6" fill="#F5A623"/><text x="30" y="20" class="tname">Yucca</text><text x="14" y="60" class="tmood">Thirsty</text><text x="14" y="86" class="tmeta">a drink soon?</text></g><g transform="translate(1172 810)"><rect width="150" height="104" rx="14" fill="#FFFFFF" stroke="#34A853" stroke-width="3"/><rect x="0" y="0" width="150" height="30" rx="14" fill="#34A853" opacity="0.16"/><rect x="0" y="16" width="150" height="14" fill="#34A853" opacity="0.16"/><circle cx="18" cy="15" r="6" fill="#34A853"/><text x="30" y="20" class="tname">Calla</text><text x="14" y="60" class="tmood">Thriving</text><text x="14" y="86" class="tmeta">all good</text></g><text x="38" y="954" class="pin">Identity never travels by colour (rule 3) — so colour is free to mean one thing: state (rule 1). That is the charter paying off at scale.</text></svg>
