<svg viewBox="0 0 1360 720" xmlns="http://www.w3.org/2000/svg"><style>
.h1{font-family:'Baloo 2',sans-serif;font-weight:800;font-size:40px;fill:#1E2A18}
.h2{font-family:'Hanken Grotesk',sans-serif;font-size:18px;fill:#6F7E62}
.eyebrow{font-family:'JetBrains Mono',monospace;font-size:14px;font-weight:600;fill:#6F7E62;letter-spacing:2px}
.colcap{font-family:'Baloo 2',sans-serif;font-weight:700;font-size:22px;fill:#1E2A18}
.colsub{font-family:'Hanken Grotesk',sans-serif;font-size:14px;fill:#6F7E62}
.name{font-family:'Baloo 2',sans-serif;font-weight:700;font-size:24px;fill:#1E2A18}
.num{font-family:'JetBrains Mono',monospace;font-size:15px;fill:#6F7E62}
.meta{font-family:'Hanken Grotesk',sans-serif;font-size:14px;fill:#6F7E62}
.chip{font-family:'Hanken Grotesk',sans-serif;font-size:13px;fill:#3C4A34}
.mood{font-family:'Baloo 2',sans-serif;font-weight:800;font-size:30px;fill:#1E2A18}
.bandtag{font-family:'JetBrains Mono',monospace;font-size:12px;fill:#8A9880}
.say{font-family:'Hanken Grotesk',sans-serif;font-size:17px;fill:#2C3A24}
.wlabel{font-family:'JetBrains Mono',monospace;font-size:11px;font-weight:600;fill:#8A9880;letter-spacing:1.5px}
.wval{font-family:'Hanken Grotesk',sans-serif;font-size:16px;fill:#1E2A18}
.foot{font-family:'Hanken Grotesk',sans-serif;font-size:14px;fill:#6F7E62}
.tiny{font-family:'Hanken Grotesk',sans-serif;font-size:11px;fill:#9A8480}
.today-title{font-family:'Baloo 2',sans-serif;font-weight:700;font-size:22px;fill:#1E2A18}
.rawbig{font-family:'Baloo 2',sans-serif;font-weight:800;font-size:72px;fill:#1E2A18}
.rawlab{font-family:'JetBrains Mono',monospace;font-size:13px;font-weight:600;fill:#8A9880;letter-spacing:2px}
.today-band{font-family:'Baloo 2',sans-serif;font-weight:700;font-size:24px;fill:#3C4A34}
.idx{font-family:'Hanken Grotesk',sans-serif;font-size:13px;fill:#9A8480}
.pin{font-family:'Hanken Grotesk',sans-serif;font-size:13px;font-style:italic;fill:#6F7E62}
.gname{font-family:'Baloo 2',sans-serif;font-weight:700;font-size:19px;fill:#1E2A18}
.gmeta{font-family:'Hanken Grotesk',sans-serif;font-size:13px;fill:#6F7E62}
.gmood{font-family:'Baloo 2',sans-serif;font-weight:800;font-size:22px;fill:#1E2A18}
.gsay{font-family:'Hanken Grotesk',sans-serif;font-size:15px;fill:#2C3A24}
.graw{font-family:'Baloo 2',sans-serif;font-weight:800;font-size:44px;fill:#1E2A18}
.grawlab{font-family:'JetBrains Mono',monospace;font-size:11px;font-weight:600;fill:#8A9880;letter-spacing:1.5px}
.tname{font-family:'Baloo 2',sans-serif;font-weight:700;font-size:13px;fill:#1E2A18}
.tmood{font-family:'Baloo 2',sans-serif;font-weight:800;font-size:20px;fill:#1E2A18}
.tmeta{font-family:'Hanken Grotesk',sans-serif;font-size:12px;fill:#6F7E62}
.traw{font-family:'Baloo 2',sans-serif;font-weight:800;font-size:28px;fill:#1E2A18}
.tband{font-family:'Hanken Grotesk',sans-serif;font-size:13px;fill:#6F7E62}
</style><rect width="1360" height="720" fill="#EEF4E6"/><text x="56" y="66" class="h1">Four plants (n=4) — today vs. proposed</text><text x="56" y="98" class="h2">In the proposed grid, the one amber frame pulls your eye straight to the thirsty plant. In the today grid, you read every number.</text><text x="184" y="150" class="colcap">Today</text><text x="852" y="150" class="colcap">Proposed</text><g transform="translate(56 176)"><rect width="300" height="200" rx="18" fill="#FFFFFF" stroke="#E3E9D8" stroke-width="1.5"/><text x="18" y="38" class="gname">Monstera #3</text><text x="150.0" y="118" class="graw" text-anchor="middle">2418</text><text x="150.0" y="142" class="grawlab" text-anchor="middle">RAW · IDEAL</text></g><g transform="translate(728 176)"><rect width="300" height="200" rx="18" fill="#FFFFFF" stroke="#8BD24F" stroke-width="3"/><rect x="18" y="18" width="52" height="52" rx="12" fill="#F7FAF2" stroke="#E3E9D8"/><g><path d="M40 18 C22 8,14 28,38 40" fill="#5FA23C"/><path d="M48 18 C66 8,74 28,50 40" fill="#5FA23C"/><path d="M44 8 C34 18,36 38,44 42 C52 38,54 18,44 8 Z" fill="#6FB446"/><rect x="41" y="34" width="6" height="18" rx="2" fill="#4F7D34"/><path d="M22 44 L66 44 L60 74 Q44 78 28 74 Z" fill="#C9A488"/><rect x="19" y="40" width="50" height="8" rx="3" fill="#B98F6F"/></g><text x="84" y="40" class="gname">Monstera</text><text x="84" y="62" class="gmeta">#3 · Kitchen</text><rect x="18" y="88" width="264" height="94" rx="12" fill="#8BD24F" opacity="0.08"/><circle cx="38" cy="118" r="8" fill="#8BD24F"/><text x="54" y="126" class="gmood">Content</text><text x="34" y="162" class="gsay">Plenty to drink.</text></g><g transform="translate(380 176)"><rect width="300" height="200" rx="18" fill="#FFFFFF" stroke="#E3E9D8" stroke-width="1.5"/><text x="18" y="38" class="gname">Fern #7</text><text x="150.0" y="118" class="graw" text-anchor="middle">2205</text><text x="150.0" y="142" class="grawlab" text-anchor="middle">RAW · MOIST</text></g><g transform="translate(1052 176)"><rect width="300" height="200" rx="18" fill="#FFFFFF" stroke="#34A853" stroke-width="3"/><rect x="18" y="18" width="52" height="52" rx="12" fill="#F7FAF2" stroke="#E3E9D8"/><g><path d="M40 18 C22 8,14 28,38 40" fill="#5FA23C"/><path d="M48 18 C66 8,74 28,50 40" fill="#5FA23C"/><path d="M44 8 C34 18,36 38,44 42 C52 38,54 18,44 8 Z" fill="#6FB446"/><rect x="41" y="34" width="6" height="18" rx="2" fill="#4F7D34"/><path d="M22 44 L66 44 L60 74 Q44 78 28 74 Z" fill="#C9A488"/><rect x="19" y="40" width="50" height="8" rx="3" fill="#B98F6F"/></g><text x="84" y="40" class="gname">Fern</text><text x="84" y="62" class="gmeta">#7 · Kitchen</text><rect x="18" y="88" width="264" height="94" rx="12" fill="#34A853" opacity="0.08"/><circle cx="38" cy="118" r="8" fill="#34A853"/><text x="54" y="126" class="gmood">Thriving</text><text x="34" y="162" class="gsay">Feeling good.</text></g><g transform="translate(56 400)"><rect width="300" height="200" rx="18" fill="#FFFFFF" stroke="#E3E9D8" stroke-width="1.5"/><text x="18" y="38" class="gname">Basil #2</text><text x="150.0" y="118" class="graw" text-anchor="middle">3120</text><text x="150.0" y="142" class="grawlab" text-anchor="middle">RAW · DRYING</text></g><g transform="translate(728 400)"><rect width="300" height="200" rx="18" fill="#FFFFFF" stroke="#F5A623" stroke-width="3"/><rect x="18" y="18" width="52" height="52" rx="12" fill="#F7FAF2" stroke="#E3E9D8"/><g><path d="M40 18 C22 8,14 28,38 40" fill="#5FA23C"/><path d="M48 18 C66 8,74 28,50 40" fill="#5FA23C"/><path d="M44 8 C34 18,36 38,44 42 C52 38,54 18,44 8 Z" fill="#6FB446"/><rect x="41" y="34" width="6" height="18" rx="2" fill="#4F7D34"/><path d="M22 44 L66 44 L60 74 Q44 78 28 74 Z" fill="#C9A488"/><rect x="19" y="40" width="50" height="8" rx="3" fill="#B98F6F"/></g><text x="84" y="40" class="gname">Basil</text><text x="84" y="62" class="gmeta">#2 · Kitchen</text><rect x="18" y="88" width="264" height="94" rx="12" fill="#F5A623" opacity="0.08"/><circle cx="38" cy="118" r="8" fill="#F5A623"/><text x="54" y="126" class="gmood">Thirsty</text><text x="34" y="162" class="gsay">Getting dry — a drink soon?</text></g><g transform="translate(380 400)"><rect width="300" height="200" rx="18" fill="#FFFFFF" stroke="#E3E9D8" stroke-width="1.5"/><text x="18" y="38" class="gname">Aloe #5</text><text x="150.0" y="118" class="graw" text-anchor="middle">1740</text><text x="150.0" y="142" class="grawlab" text-anchor="middle">RAW · WET</text></g><g transform="translate(1052 400)"><rect width="300" height="200" rx="18" fill="#FFFFFF" stroke="#17B6C4" stroke-width="3"/><rect x="18" y="18" width="52" height="52" rx="12" fill="#F7FAF2" stroke="#E3E9D8"/><g><path d="M40 18 C22 8,14 28,38 40" fill="#5FA23C"/><path d="M48 18 C66 8,74 28,50 40" fill="#5FA23C"/><path d="M44 8 C34 18,36 38,44 42 C52 38,54 18,44 8 Z" fill="#6FB446"/><rect x="41" y="34" width="6" height="18" rx="2" fill="#4F7D34"/><path d="M22 44 L66 44 L60 74 Q44 78 28 74 Z" fill="#C9A488"/><rect x="19" y="40" width="50" height="8" rx="3" fill="#B98F6F"/></g><text x="84" y="40" class="gname">Aloe</text><text x="84" y="62" class="gmeta">#5 · Kitchen</text><rect x="18" y="88" width="264" height="94" rx="12" fill="#17B6C4" opacity="0.08"/><circle cx="38" cy="118" r="8" fill="#17B6C4"/><text x="54" y="126" class="gmood">Refreshed</text><text x="34" y="162" class="gsay">Just watered, thanks!</text></g><text x="56" y="690" class="pin">Same four plants, same data. Mood-as-frame turns "scan and compare" into "glance and go."</text></svg>
