<svg xmlns="http://www.w3.org/2000/svg" viewBox="0 0 1280 640" width="1280" height="640" role="img" aria-label="Sprout — plants that finally have a voice: a glowing seedling in a sensor ring above the wordmark, on a dark ground, with the seven-band mood spectrum along the bottom">
  <!--
    Sprout social-preview card (og:image) — 1280x640, CROP-SAFE recomposition (#1403).

    Why centred, rather than the previous left-mark / right-text layout — the crop math:

      GitHub 2:1           x    0 .. 1280   (the master itself, no crop)
      OG / LinkedIn 1.91:1 x   29 .. 1251   (wider source, so it crops the sides)
      hard square 1:1      x  320 ..  960   (some unfurlers centre-crop hard)
      ---------------------------------------------------------------------------
      INTERSECTION         x  320 ..  960   -> the middle 640 px. Half the card.

    Every load-bearing element — mark, eyebrow, wordmark, brand line — therefore lives
    inside x 340..940 (the intersection with a 20 px inset). The old composition put the
    wordmark and brand line out at x 516..1130, which a square crop removes entirely:
    the framing that was served was never the framing that was composed (#1403).

    Everything outside the safe box is DECORATIVE and expected to be cropped — the
    gradient ground, the particles, the mood spectrum. Losing any of it costs
    atmosphere, never meaning.

    Master for social-preview.png. Upload is web-UI only (no API) — see #1403.
    Light sibling: social-preview-light.svg/png.
  -->
  <defs>
    <radialGradient id="bg" cx="50%" cy="38%" r="82%">
      <stop offset="0" stop-color="#16281f"/><stop offset="0.55" stop-color="#0c1712"/><stop offset="1" stop-color="#070f0b"/>
    </radialGradient>
    <radialGradient id="glow" cx="50%" cy="50%" r="50%">
      <stop offset="0" stop-color="#8BD24F" stop-opacity="0.42"/><stop offset="0.6" stop-color="#8BD24F" stop-opacity="0.10"/><stop offset="1" stop-color="#8BD24F" stop-opacity="0"/>
    </radialGradient>
    <linearGradient id="leafA" x1="0" y1="1" x2="0.35" y2="0"><stop offset="0" stop-color="#4a9a3f"/><stop offset="1" stop-color="#C7F07E"/></linearGradient>
    <linearGradient id="leafB" x1="0" y1="1" x2="0.35" y2="0"><stop offset="0" stop-color="#2f8a44"/><stop offset="1" stop-color="#8BD24F"/></linearGradient>
    <radialGradient id="soil" cx="50%" cy="0%" r="90%"><stop offset="0" stop-color="#3a2a1c"/><stop offset="1" stop-color="#140d08"/></radialGradient>
    <style>
      @import url('https://fonts.googleapis.com/css2?family=Baloo+2:wght@600;700;800&amp;family=JetBrains+Mono:wght@500&amp;display=swap');
      .wm { font-family: 'Baloo 2', system-ui, sans-serif; font-weight: 800; }
      .tag { font-family: 'Baloo 2', system-ui, sans-serif; font-weight: 700; }
      .cat { font-family: 'JetBrains Mono', ui-monospace, monospace; font-weight: 500; letter-spacing: 5px; }
    </style>
  </defs>

  <rect width="1280" height="640" fill="url(#bg)"/>

  <!-- DECORATIVE (croppable): particles, balanced into both wings -->
  <g fill="#8BD24F" opacity="0.45">
    <circle cx="120" cy="150" r="2.4"/><circle cx="232" cy="470" r="2"/><circle cx="86" cy="330" r="2.2"/>
    <circle cx="1160" cy="180" r="2.4"/><circle cx="1048" cy="470" r="2"/><circle cx="1196" cy="352" r="2.2"/>
  </g>

  <!-- ================= the safe stack — all inside x 340..940 ================= -->

  <circle cx="640" cy="222" r="196" fill="url(#glow)"/>
  <circle cx="640" cy="215" r="140" fill="none" stroke="#2b563a" stroke-width="8" opacity="0.85"/>
  <circle cx="640" cy="215" r="140" fill="none" stroke="#8BD24F" stroke-width="8" stroke-linecap="round"
          stroke-dasharray="241 638" transform="rotate(-125 640 215)" opacity="0.9"/>
  <ellipse cx="640" cy="336" rx="114" ry="17" fill="url(#soil)"/>
  <g transform="translate(526,105) scale(9.5)" fill="none" stroke="#2f8a44" stroke-width="1.5" stroke-linecap="round" stroke-linejoin="round">
    <path d="M12 26 V12"/>
    <path d="M12 13 C8 11 6 8 7 5 C11 6 12 10 12 13 Z" fill="url(#leafA)"/>
    <path d="M12 13 C16 11 18 8 17 5 C13 6 12 10 12 13 Z" fill="url(#leafB)"/>
    <path d="M12 11 C9 6 11 3 12 1 C14 4 14 8 12 11 Z" fill="#C7F07E"/>
  </g>

  <text class="cat" x="640" y="406" font-size="18" fill="#93c96a" text-anchor="middle">SOIL · MOISTURE · CARE</text>
  <text class="wm"  x="640" y="516" font-size="104" fill="#F1F6EC" text-anchor="middle">Sprout</text>
  <text class="tag" x="640" y="576" font-size="36" fill="#8BD24F" text-anchor="middle">Plants that finally have a voice.</text>

  <!-- DECORATIVE (croppable): the seven-band mood spectrum -->
  <g>
    <rect x="0" y="626" width="182.9" height="14" fill="#17B6C4"/>
    <rect x="182.9" y="626" width="182.9" height="14" fill="#34A853"/>
    <rect x="365.8" y="626" width="182.9" height="14" fill="#8BD24F"/>
    <rect x="548.7" y="626" width="182.9" height="14" fill="#C6D84A"/>
    <rect x="731.6" y="626" width="182.9" height="14" fill="#F5A623"/>
    <rect x="914.5" y="626" width="182.9" height="14" fill="#E8703A"/>
    <rect x="1097.4" y="626" width="182.6" height="14" fill="#E0483D"/>
  </g>
</svg>
